<?xml version="1.0" standalone="no"?>
<!DOCTYPE svg PUBLIC "-//W3C//DTD SVG 1.1//EN" "http://www.w3.org/Graphics/SVG/1.1/DTD/svg11.dtd" >

<svg>
<metadata>
Created by webfont
</metadata>
<defs>

<font id="Noto Sans S Chinese Thin" horiz-adv-x="1000" vert-adv-y="1000" >
  <font-face
    
    font-family="Noto Sans S Chinese Thin"
    
    font-weight="100"
    
    font-stretch="normal"
    
    units-per-em="1000"
    
    panose-1="0 0 0 0 0 0 0 0 0 0"
    
    ascent="880"
    
    descent="-120"
    
    x-height="527"
    
    cap-height="726"
    
    bbox="-991 -1050 2930 1810"
    
    underline-thickness="50"
    
    underline-position="-100"
    
    unicode-range="U+0001-2CE93"
    
  />
    <missing-glyph />
    
    <glyph glyph-name="cid4" unicode="&#x23;" d="M339 272l24 194h-171l-24 -194h171zM132 240h-92v32h96l25 194h-99v32h101l28 217h32l-28 -217h170l29 217h32l-28 -217h90v-32h-93l-24 -194h94v-32h-99l-28 -240h-32l28 240h-170l-29 -240h-32z"  horiz-adv-x="521"   />

    
    <glyph glyph-name="cid15" unicode="&#x2e;" d="M115 -13q-15 0 -27.5 11.5t-12.5 31.5q0 22 12.5 33.5t27.5 11.5q16 0 28.5 -11.5t12.5 -33.5q0 -20 -12.5 -31.5t-28.5 -11.5z"  horiz-adv-x="231"   />

    
    <glyph glyph-name="cid16" unicode="&#x2f;" d="M359 782h34l-349 -958h-35z"  horiz-adv-x="396"   />

    
    <glyph glyph-name="cid17" unicode="&#x30;" d="M261 20q77 0 122.5 88.5t45.5 256.5q0 166 -45.5 254t-122.5 88q-78 0 -123.5 -88t-45.5 -254q0 -168 45.5 -256.5t123.5 -88.5zM261 -13q-97 0 -151.5 92.5t-54.5 285.5q0 190 54.5 282t151.5 92q95 0 150 -92t55 -282q0 -192 -55 -285t-150 -93z"  horiz-adv-x="521"   />

    
    <glyph glyph-name="cid1390" unicode="&#x3001;" d="M291 -43q-26 31 -54.5 62.5t-57.5 60.5t-58.5 55t-56.5 47l25 24q55 -44 115 -103t116 -122z"     />

    
    <glyph glyph-name="cid1391" unicode="&#x3002;" d="M195 -16q24 0 44.5 9t35.5 24t24 35.5t9 44.5q0 23 -9 43.5t-24 36t-35.5 24.5t-44.5 9q-23 0 -43.5 -9t-36 -24.5t-24.5 -36t-9 -43.5q0 -24 9 -44.5t24.5 -35.5t36 -24t43.5 -9zM195 240q30 0 56 -11t45.5 -30.5t30.5 -45.5t11 -56t-11 -56t-30.5 -45.5t-45.5 -30.5
t-56 -11q-29 0 -55 11t-45.5 30.5t-31 45.5t-11.5 56t11.5 56t31 45.5t45.5 30.5t55 11z"     />

    
    <glyph glyph-name="cid1399" unicode="&#x300A;" d="M955 -70l-25 -10l-246 460l246 460l25 -10l-241 -450zM812 -70l-25 -10l-246 460l246 460l25 -10l-241 -450z"     />

    
    <glyph glyph-name="cid1400" unicode="&#x300B;" d="M45 -70l241 450l-241 450l25 10l246 -460l-246 -460zM188 -70l241 450l-241 450l25 10l246 -460l-246 -460z"     />

    
    <glyph glyph-name="cid1401" unicode="&#x300C;" d="M660 840h300v-30h-270v-624h-30v654z"     />

    
    <glyph glyph-name="cid1402" unicode="&#x300D;" d="M340 -80h-300v30h270v624h30v-654z"     />

    
    <glyph glyph-name="cid18" unicode="&#x31;" d="M95 33h167v625h-127v26q42 7 75 17.5t56 24.5h31v-693h156v-33h-358v33z"  horiz-adv-x="521"   />

    
    <glyph glyph-name="cid19" unicode="&#x32;" d="M46 23q97 83 164 154t108.5 133.5t60 118t18.5 106.5q0 35 -9 66t-28.5 54.5t-49.5 37t-72 13.5q-49 0 -92.5 -25.5t-76.5 -67.5l-25 23q38 43 85.5 73t111.5 30q93 0 143.5 -55.5t50.5 -148.5q0 -60 -22 -119t-64 -121t-103 -128t-140 -139q30 2 60 3.5t59 1.5h246v-33
h-425v23z"  horiz-adv-x="521"   />

    
    <glyph glyph-name="cid20" unicode="&#x33;" d="M253 -13q-42 0 -75.5 9t-60 23t-47.5 32t-37 35l23 26q16 -17 35 -33.5t43 -29.5t53.5 -21t67.5 -8q37 0 68.5 12t54 34t35.5 53.5t13 69.5q0 39 -14.5 71t-45 55.5t-78 36t-114.5 12.5v35q63 0 106 13t69.5 36t38 53.5t11.5 65.5q0 63 -40 102t-108 39q-49 0 -92 -23.5
t-72 -55.5l-23 26q35 34 80 59.5t107 25.5q39 0 73 -11.5t59.5 -33.5t40 -54t14.5 -72q0 -74 -39.5 -119.5t-97.5 -64.5v-4q33 -7 62.5 -23t52 -40t35.5 -56t13 -71q0 -47 -16 -84.5t-44.5 -64t-67 -41t-83.5 -14.5z"  horiz-adv-x="521"   />

    
    <glyph glyph-name="cid21" unicode="&#x34;" d="M486 213h-108v-213h-35v213h-325v19l335 494h25v-481h108v-32zM343 245v299q0 11 0.5 26t1 30.5t1.5 30t2 26.5h-5q-13 -23 -26.5 -48t-30.5 -48l-220 -316h277z"  horiz-adv-x="521"   />

    
    <glyph glyph-name="cid22" unicode="&#x35;" d="M247 -13q-42 0 -75 8.5t-59.5 22t-47 30t-36.5 33.5l23 27q15 -17 33.5 -32.5t42.5 -28t53.5 -20t67.5 -7.5q36 0 69 15t57.5 42.5t39.5 66t15 85.5q0 93 -48.5 147t-130.5 54q-41 0 -71.5 -13.5t-61.5 -34.5l-30 18l26 326h317v-33h-284l-24 -267q28 17 59 27.5t72 10.5
q45 0 84 -13.5t68 -42t45.5 -72.5t16.5 -105q0 -59 -19 -104t-50 -76.5t-71 -47.5t-81 -16z"  horiz-adv-x="521"   />

    
    <glyph glyph-name="cid23" unicode="&#x36;" d="M436 648q-23 29 -54 43.5t-66 14.5q-44 0 -83 -18.5t-68.5 -60.5t-47 -111t-18.5 -170q38 46 84 72t97 26q94 0 144.5 -58t50.5 -170q0 -50 -15 -91.5t-41 -72.5t-60 -48t-72 -17q-53 0 -94.5 23.5t-70.5 68.5t-44.5 110.5t-15.5 149.5q0 112 21 188.5t56 123.5
t81.5 67.5t96.5 20.5q47 0 81.5 -18t61.5 -48zM289 20q32 0 59 15.5t47 42t31 62t11 76.5q0 42 -9 78t-28 62.5t-49 41.5t-73 15q-38 0 -85.5 -25t-92.5 -85q3 -62 15 -114t35.5 -89.5t57.5 -58.5t81 -21z"  horiz-adv-x="521"   />

    
    <glyph glyph-name="cid24" unicode="&#x37;" d="M210 0q4 112 18 205.5t39.5 176.5t64.5 158.5t94 152.5h-378v33h427v-21q-65 -87 -106.5 -168t-66.5 -165t-36 -175t-15 -197h-41v0z"  horiz-adv-x="521"   />

    
    <glyph glyph-name="cid25" unicode="&#x38;" d="M265 20q39 0 71 11.5t54.5 32t34.5 47.5t12 58q0 45 -19 76.5t-50.5 55t-71.5 40.5t-82 34q-59 -33 -96 -82t-37 -113q0 -33 13.5 -62.5t38 -51t58.5 -34t74 -12.5zM318 373q48 38 73 81t25 92q0 31 -10 59.5t-29.5 50.5t-47.5 34.5t-64 12.5q-32 0 -58 -11t-44.5 -30.5
t-29 -45.5t-10.5 -57q0 -40 17 -68.5t45 -50t62.5 -37.5t70.5 -30zM265 -13q-48 0 -89 14.5t-70 40.5t-45.5 61.5t-16.5 76.5q0 38 13 71t33.5 60t46 47t50.5 34v4q-19 12 -37 28.5t-32.5 37t-23 44.5t-8.5 53q0 39 14 71t38 55.5t56.5 36.5t70.5 13q45 0 79.5 -14.5
t58.5 -40t36.5 -60t12.5 -74.5q0 -30 -10 -58t-25 -52t-32.5 -43t-32.5 -31v-5q22 -14 44.5 -31t39.5 -39.5t28 -51.5t11 -66q0 -38 -15 -71t-43 -58t-66.5 -39t-85.5 -14z"  horiz-adv-x="521"   />

    
    <glyph glyph-name="cid26" unicode="&#x39;" d="M87 79q52 -59 130 -59q39 0 75.5 18.5t65 61.5t46.5 111.5t21 169.5q-38 -44 -84 -71.5t-101 -27.5q-91 0 -141.5 59t-50.5 169q0 49 15 91t40.5 73t60 48t72.5 17q106 0 166 -86t60 -244q0 -118 -21 -199t-55.5 -130.5t-79 -71t-92.5 -21.5q-51 0 -86.5 18t-63.5 48z
M243 313q42 0 89.5 27t92.5 88q-2 61 -14 112t-35 88t-58.5 58t-83.5 21q-32 0 -59 -15.5t-47 -42t-31 -62.5t-11 -77t9 -77t28 -62.5t48.5 -42t71.5 -15.5z"  horiz-adv-x="521"   />

    
    <glyph glyph-name="cid27" unicode="&#x3a;" d="M115 -13q-15 0 -27.5 11.5t-12.5 31.5q0 22 12.5 33.5t27.5 11.5q16 0 28.5 -11.5t12.5 -33.5q0 -20 -12.5 -31.5t-28.5 -11.5zM115 415q-15 0 -27.5 11t-12.5 32q0 22 12.5 33.5t27.5 11.5q16 0 28.5 -11.5t12.5 -33.5q0 -21 -12.5 -32t-28.5 -11z"  horiz-adv-x="231"   />

    
    <glyph glyph-name="cid33" unicode="&#x40;" d="M394 102q27 0 58 18.5t66 58.5l35 195q-21 32 -40 44t-46 12q-38 0 -69 -19t-52.5 -49.5t-33 -68t-11.5 -73.5q0 -33 7.5 -55.5t20 -36.5t29.5 -20t36 -6zM421 -157q-79 0 -146 25.5t-115.5 74.5t-75.5 119.5t-27 159.5q0 107 35.5 193.5t95 148t137.5 95t163 33.5
q78 0 141 -24.5t107.5 -69.5t68 -108.5t23.5 -141.5q0 -69 -18.5 -122t-47 -89t-63.5 -54.5t-68 -18.5q-44 0 -72.5 20t-31.5 63h-2q-30 -31 -63.5 -54t-71.5 -23q-25 0 -47.5 9t-39.5 27.5t-27 46.5t-10 65q0 39 13.5 82t39.5 79.5t64 60t87 23.5q59 0 92 -53h2l9 44h30
l-38 -203q-15 -80 0 -117.5t68 -37.5q27 0 55 16.5t51.5 48.5t38.5 78t15 106q0 73 -21.5 131t-62 99t-97.5 63t-127 22q-76 0 -147 -31t-126 -88t-88 -137.5t-33 -179.5q0 -80 24 -144.5t67.5 -109.5t104.5 -69.5t136 -24.5q57 0 102.5 15t84.5 39l17 -28q-95 -59 -206 -59
z"  horiz-adv-x="885"   />

    
    <glyph glyph-name="cid34" unicode="&#x41;" d="M433 258h-294l-91 -258h-37l259 726h33l260 -726h-40zM422 290l-50 145q-23 66 -43 125.5t-40 127.5h-4q-20 -68 -40.5 -127.5t-43.5 -125.5l-51 -145h272z"  horiz-adv-x="574"   />

    
    <glyph glyph-name="cid36" unicode="&#x43;" d="M362 -13q-67 0 -122.5 27t-95 76.5t-61 119t-21.5 155.5t22 155t62 118t96.5 75t125.5 26q63 0 110 -26.5t75 -59.5l-23 -25q-29 34 -70 55t-92 21q-62 0 -111.5 -23.5t-84 -68t-53 -107t-18.5 -140.5t18.5 -141.5t52.5 -108t82.5 -69t109.5 -24.5q57 0 101.5 23t86.5 69
l23 -24q-42 -48 -92 -75.5t-121 -27.5z"  horiz-adv-x="619"   />

    
    <glyph glyph-name="cid37" unicode="&#x44;" d="M268 33q77 0 132.5 25t91 69.5t52 105t16.5 132.5t-16.5 132t-52 103.5t-91 68t-132.5 24.5h-121v-660h121zM110 726h163q84 0 145.5 -26t101.5 -73t59.5 -114t19.5 -148t-19.5 -148t-59 -115.5t-101 -75t-145.5 -26.5h-164v726z"  horiz-adv-x="661"   />

    
    <glyph glyph-name="cid38" unicode="&#x45;" d="M110 726h390v-33h-353v-289h296v-33h-296v-338h364v-33h-401v726z"  horiz-adv-x="562"   />

    
    <glyph glyph-name="cid39" unicode="&#x46;" d="M110 726h388v-33h-351v-303h296v-32h-296v-358h-37v726z"  horiz-adv-x="518"   />

    
    <glyph glyph-name="cid40" unicode="&#x47;" d="M368 -13q-69 0 -125.5 27t-96.5 76.5t-62 119t-22 155.5t22.5 155t64 118t100 75t130.5 26q36 0 66 -8t53.5 -20t42 -27.5t32.5 -30.5l-23 -25q-28 31 -69 53.5t-102 22.5q-65 0 -116.5 -23.5t-87.5 -68t-55 -107t-19 -140.5t18.5 -141.5t53 -108t85 -69t113.5 -24.5
q52 0 98 15.5t73 42.5v238h-179v33h218v-283q-34 -36 -87.5 -58.5t-125.5 -22.5z"  horiz-adv-x="661"   />

    
    <glyph glyph-name="cid46" unicode="&#x4d;" d="M110 726h59l155 -438q14 -41 29.5 -81.5t30.5 -82.5h4q15 42 29 82.5t28 81.5l156 438h59v-726h-37v502q0 43 1 94t3 96h-4l-56 -160l-163 -451h-39l-164 451l-57 160h-4q2 -45 3.5 -96t1.5 -94v-502h-35v726z"  horiz-adv-x="770"   />

    
    <glyph glyph-name="cid47" unicode="&#x4e;" d="M110 726h39l320 -529l83 -143h5q-6 105 -6 205v467h36v-726h-40l-319 529l-83 143h-4q2 -51 3 -99t1 -100v-473h-35v726z"  horiz-adv-x="696"   />

    
    <glyph glyph-name="uni4E00" unicode="&#x4E00;" d="M955 407v-33h-905v33h905z"     />

    
    <glyph glyph-name="cid9840" unicode="&#x4E07;" d="M402 719q-2 -59 -4.5 -121.5t-10.5 -125.5h446v-20q0 -127 -6.5 -215t-17 -146t-24 -89.5t-27.5 -45.5q-13 -14 -27.5 -18.5t-39.5 -5.5q-26 -1 -74.5 0.5t-102.5 6.5q-1 8 -3 15.5t-7 14.5q30 -3 58.5 -4.5t53 -2.5t42.5 -1h27q19 -1 29.5 1t17.5 10q13 12 23 41.5
t18 85t15.5 139.5t14.5 205h-420q-11 -78 -32 -153.5t-57 -143t-91 -124.5t-133 -98q-4 5 -10.5 10t-11.5 9q75 38 127.5 91t88 116.5t56.5 135t32 145t14.5 147t5.5 141.5h-307v29h870v-29h-533z"     />

    
    <glyph glyph-name="cid9843" unicode="&#x4E0A;" d="M942 5v-29h-883v29h392v808h29v-330h395v-29h-395v-449h462z"     />

    
    <glyph glyph-name="cid9844" unicode="&#x4E0B;" d="M496 726v-200l7 8q49 -23 101.5 -51.5t102.5 -57.5t94 -56.5t75 -49.5l-17 -26q-30 22 -72.5 49.5t-91 56.5t-100 57.5t-99.5 52.5v-579h-29v796h-408v30h883v-30h-446z"     />

    
    <glyph glyph-name="cid9846" unicode="&#x4E0D;" d="M590 527q48 -28 99 -61.5t98.5 -68t88.5 -68t69 -61.5l-19 -22q-29 28 -70 61.5t-88.5 69t-98 69.5t-98.5 62zM597 727q-18 -32 -39.5 -64t-44.5 -64v-669h-29v631q-83 -101 -186.5 -188t-222.5 -151q-4 5 -9 11.5t-10 11.5q79 42 153.5 96t139.5 116t119.5 130.5
t94.5 139.5h-489v29h852v-29h-329z"     />

    
    <glyph glyph-name="cid9848" unicode="&#x4E0E;" d="M868 421q-1 -4 -1 -8q0 -3 -0.5 -6t-0.5 -5q-12 -109 -23.5 -186t-24 -128.5t-26.5 -81.5t-30 -45q-14 -13 -29 -16.5t-41 -4.5q-23 0 -70.5 1.5t-100.5 6.5q-1 6 -3 14t-7 14q59 -5 108 -6.5t69 -1.5q19 0 30.5 1.5t19.5 9.5q15 13 28 41t24.5 76.5t22.5 121t23 174.5
h-663q12 39 25 90.5t26.5 107t26 110.5t22.5 102l28 -4q-6 -29 -12 -60t-14 -63h589v-29h-596q-14 -61 -28.5 -119.5t-27.5 -105.5h656zM689 185h-623v29h623v-29z"     />

    
    <glyph glyph-name="cid9857" unicode="&#x4E13;" d="M364 487q-14 -39 -27.5 -75t-25.5 -66h478l5 3l22 -15q-28 -28 -63.5 -62t-73.5 -71.5t-77.5 -75.5t-75.5 -73q54 -24 101.5 -48t82.5 -47l-21 -24q-35 22 -84 48t-105.5 51.5t-116 49.5t-114.5 42l20 21q50 -17 103 -36.5t104 -42.5q33 30 68.5 63.5t70 66.5t66 64
t56.5 57h-490q15 35 32 78.5t36 91.5h-272v29h282q14 38 28 76.5t27 76.5h-259v29h270q12 35 22.5 67.5t20.5 61.5h31q-21 -60 -45 -129h403v-29h-413q-14 -38 -27.5 -76.5t-27.5 -76.5h540v-29h-551z"     />

    
    <glyph glyph-name="cid9868" unicode="&#x4E1A;" d="M934 15v-29h-865v29h301v804h29v-804h205v801h29v-801h301zM253 246q-10 31 -27 71t-37 84t-43 88.5t-45 83.5l28 8q22 -39 45 -82.5t43.5 -87t38 -83t28.5 -69.5zM902 565q-19 -39 -42 -83t-47 -87.5t-48.5 -84t-47.5 -74.5l-24 14q22 33 47 74.5t49 85.5t46 87.5
t39 80.5z"     />

    
    <glyph glyph-name="cid9870" unicode="&#x4E1C;" d="M691 264q32 -29 65.5 -63t64 -68t56.5 -66.5t43 -58.5l-25 -18q-17 26 -42 59t-55.5 67.5t-63.5 68.5t-65 64zM556 360v-369q0 -22 -6.5 -31.5t-22.5 -14.5q-17 -5 -51.5 -5.5t-85.5 -0.5q-5 17 -14 32q49 -1 84.5 -1t47.5 1q11 1 15 5t4 15v369h-238q-49 0 -70 -3.5
t-29 -9.5q-2 6 -5 16.5t-7 16.5q13 3 29.5 25.5t38.5 56.5q14 22 45.5 76t67.5 125h-274v29h289q17 34 32.5 69.5t29.5 70.5l25 -20q-12 -30 -26 -60l-28 -60h494v-29h-508q-37 -75 -77.5 -145t-82.5 -129h294v166h29v-166h307v-29h-307zM311 254q-38 -78 -91 -149.5
t-109 -122.5q-4 4 -11.5 10.5t-13.5 9.5q57 49 109.5 117.5t87.5 142.5z"     />

    
    <glyph glyph-name="cid9889" unicode="&#x4E2A;" d="M538 819q-5 -10 -11 -19l-12 -18q75 -116 183.5 -206.5t256.5 -169.5q-6 -3 -12 -9.5t-10 -12.5q-144 80 -250.5 170.5t-182.5 204.5q-40 -56 -89 -109.5t-104.5 -101.5t-115.5 -89.5t-122 -72.5q-4 5 -10 11t-12 9q70 35 137.5 82.5t128.5 103t112 116.5t88 123z
M485 564h29v-635h-29v635z"     />

    
    <glyph glyph-name="cid9893" unicode="&#x4E2D;" d="M890 646v-439h-29v64h-349v-340h-29v340h-349v-69h-29v444h378v184h29v-184h378zM483 300v317h-349v-317h349zM861 300v317h-349v-317h349z"     />

    
    <glyph glyph-name="cid9898" unicode="&#x4E30;" d="M941 184h-427v-253h-29v253h-426v29h426v212h-340v29h340v197h-388v29h388v151h29v-151h386v-29h-386v-197h341v-29h-341v-212h427v-29z"     />

    
    <glyph glyph-name="cid9904" unicode="&#x4E34;" d="M945 705v-29h-439q-27 -60 -58.5 -113.5t-66.5 -95.5q-5 3 -13.5 8t-14.5 7q60 66 105.5 158t74.5 194l29 -6q-10 -32 -21 -62.5t-23 -60.5h427zM749 436q-14 15 -33.5 35t-42 41t-46 42t-45.5 39l21 17q22 -18 46.5 -39t47 -41.5t42 -39t32.5 -33.5zM428 378h481v-444
h-31v55h-420v-59h-30v448zM878 349h-195v-331h195v331zM458 349v-331h195v331h-195zM267 816h29v-882h-29v882zM107 699h29v-622h-29v622z"     />

    
    <glyph glyph-name="cid9913" unicode="&#x4E3A;" d="M672 182q-11 21 -29 46.5t-39 53t-44.5 54.5t-45.5 51l24 14q23 -23 46.5 -50t44.5 -53.5t38.5 -52t29.5 -45.5zM887 562q0 -156 -6 -263t-15.5 -176t-22.5 -106t-28 -53q-13 -14 -28 -19.5t-38 -5.5q-24 -1 -68 1t-91 6q-1 6 -3 14t-7 15q27 -3 53 -4t47.5 -2t38 -1
h25.5q17 -1 26.5 1.5t17.5 11.5q13 12 23 47.5t18 102.5t15 170.5t13 252.5h-399q-8 -75 -28 -154t-62.5 -158.5t-111.5 -156t-174 -146.5q-8 11 -22 20q102 69 169 143.5t109 151t62.5 152.5t28.5 148h-339v29h342q3 38 4 74t1 70v102h29v-102q0 -34 -1 -70t-4 -74h426v-21
zM305 637q-9 15 -22 34t-28.5 39t-33 39.5t-33.5 36.5l24 14q16 -17 33.5 -36t33 -38.5t28.5 -38t22 -33.5z"     />

    
    <glyph glyph-name="cid9914" unicode="&#x4E3B;" d="M944 -5v-29h-882v29h423v299h-334v29h334v267h-373v29h780v-29h-378v-267h343v-29h-343v-299h430zM579 634q-14 18 -34 40t-43.5 45t-49 45.5t-49.5 41.5l22 15q25 -19 50.5 -41t49 -45t43.5 -45t34 -40z"     />

    
    <glyph glyph-name="cid9919" unicode="&#x4E3E;" d="M671 593q25 -38 59 -74.5t73 -68.5t80.5 -57.5t82.5 -41.5q-5 -5 -11 -11.5t-10 -12.5q-42 19 -85.5 47.5t-84 63.5t-75.5 74.5t-61 80.5h-278q-24 -45 -57 -86t-72 -76t-82 -63.5t-86 -47.5q-4 6 -10 12.5t-11 11.5q42 16 83.5 42t79 58t69.5 70t55 79h-268v29h586
q17 19 37 43t39.5 50.5t37 52t30.5 47.5l27 -16q-29 -43 -66 -91t-70 -86h256v-29h-268zM513 180h396v-30h-396v-223h-30v223h-386v30h386v161h-261v29h261v139h30v-139h278v-29h-278v-161zM291 638q-8 15 -20.5 34.5t-27.5 40t-31.5 40.5t-32.5 38l26 11q16 -17 32.5 -36.5
t31.5 -39.5t27 -39t20 -35zM509 662q-6 16 -16 37t-22.5 42.5t-26.5 43.5t-28 41l26 10q28 -38 54.5 -83.5t39.5 -77.5z"     />

    
    <glyph glyph-name="cid9936" unicode="&#x4E49;" d="M835 746q-55 -152 -131.5 -281.5t-182.5 -237.5q93 -92 199.5 -162t227.5 -113q-5 -4 -11 -10.5t-11 -13.5q-120 45 -226.5 115.5t-198.5 162.5q-88 -85 -196 -153t-242 -119q-3 5 -8.5 11.5t-10.5 10.5q134 51 241.5 118.5t195.5 152.5q-102 106 -182.5 231.5
t-137.5 265.5l25 9q56 -136 135.5 -259t180.5 -227q104 106 178 233.5t127 276.5zM536 584q-6 24 -17 54t-23.5 61.5t-26.5 63t-27 59.5l24 13q13 -28 27.5 -59.5t27.5 -63t23.5 -61t17.5 -53.5z"     />

    
    <glyph glyph-name="cid9939" unicode="&#x4E4B;" d="M833 607q-45 -68 -110 -140.5t-141 -142t-157 -131t-159 -105.5q11 -8 24.5 -19t32.5 -23q47 -29 108.5 -38t147.5 -9q49 0 100 1t99.5 3t93 4.5t80.5 5.5q-3 -6 -6 -16.5t-4 -18.5q-29 -2 -76 -3.5t-99.5 -3t-102.5 -2.5t-85 -1q-91 0 -156.5 9.5t-114.5 42.5
q-29 19 -51 39t-38 20q-26 0 -61 -34t-76 -85l-25 25q46 52 86.5 87.5t75.5 35.5q10 0 18 -4q75 41 153.5 98.5t151 123t135 134t106.5 130.5h-674v29h696l7 3zM541 649q-7 16 -18.5 37t-25.5 43.5t-29.5 45t-30.5 42.5l25 11q15 -20 31 -42.5t30 -44.5t25.5 -42t18.5 -36z
"     />

    
    <glyph glyph-name="cid9970" unicode="&#x4E5F;" d="M789 -21q37 0 59.5 9t35.5 31t19 60t11 97q15 -9 30 -14q-5 -60 -12.5 -100.5t-24 -65.5t-46.5 -35.5t-79 -10.5h-389q-45 0 -76 5t-49.5 19t-26.5 37.5t-8 61.5v362l-186 -56l-9 25l195 59v300h29v-291l261 79v278h29v-269l279 85l4 3l8 7l21 -10l-3 -8
q-2 -142 -10.5 -235.5t-25.5 -138.5q-14 -36 -34.5 -48.5t-43.5 -13.5h-54.5t-56.5 2q-2 14 -10 29q32 -2 66.5 -2.5t48.5 -0.5q19 0 33.5 8.5t26.5 41.5q15 41 21.5 126t8.5 211l-279 -84v-400h-29v391l-261 -78v-375q0 -26 5.5 -43.5t19.5 -28t38 -15t62 -4.5h402z"     />

    
    <glyph glyph-name="cid10027" unicode="&#x4E86;" d="M873 730q-33 -36 -75.5 -72.5t-90 -70.5t-96.5 -64t-95 -53v-484q0 -25 -8.5 -35t-29.5 -15t-68.5 -5.5t-128.5 -0.5q-2 7 -5.5 14.5t-7.5 15.5q73 -2 124 -2t68 2q16 1 21.5 6t5.5 19v500q42 20 87.5 46.5t89 57t83 62.5t69.5 63h-716v29h743l7 2z"     />

    
    <glyph glyph-name="cid10037" unicode="&#x4E8E;" d="M941 390h-419v-396q0 -27 -10 -38t-30 -16t-65.5 -5.5t-124.5 0.5q-2 6 -6 14l-8 16q69 -2 119.5 -1.5t66.5 1.5t22.5 6.5t6.5 21.5v397h-434v29h434v303h-364v29h742v-29h-349v-303h419v-29z"     />

    
    <glyph glyph-name="cid10043" unicode="&#x4E91;" d="M449 422q-57 -114 -122.5 -221t-133.5 -192l606 56q-37 57 -78.5 115t-79.5 109l26 12q32 -42 67 -90t67.5 -96t60.5 -92t46 -79l-26 -15q-13 23 -29.5 51t-36.5 59q-149 -14 -254.5 -24t-177.5 -17.5t-115.5 -12t-68 -8t-35 -6t-17.5 -5.5q-2 6 -5 16.5t-6 17.5
q13 3 31 25.5t41 54.5q11 16 34.5 50.5t52 80.5t59 100.5t57.5 110.5h-348v29h874v-29h-489zM834 707h-666v29h666v-29z"     />

    
    <glyph glyph-name="cid10045" unicode="&#x4E92;" d="M942 5v-29h-883v29h597q7 44 13.5 93.5t13.5 101.5h-466q12 48 25 113.5t25.5 136.5t24.5 142.5t21 133.5h-218v29h816v-29h-566q-8 -45 -16 -93.5t-17 -99.5h411l6 3l20 -4q-5 -47 -12 -112t-15.5 -136.5t-17 -144t-17.5 -134.5h255zM687 229q9 78 17.5 150.5
t13.5 124.5h-411q-14 -76 -27 -147t-25 -128h432z"     />

    
    <glyph glyph-name="cid10056" unicode="&#x4E9B;" d="M66 -13h869v-29h-869v29zM499 380q-61 -9 -121.5 -17.5t-117.5 -16.5t-109 -15.5t-94 -13.5l-4 31l75 10v355h29v-351l121 16v452h29v-192h186v-29h-186v-227l191 26zM175 214h666v-29h-666v29zM657 347q-28 0 -46.5 3t-29.5 10.5t-15.5 21t-4.5 34.5v414h29v-222
q37 13 74.5 28t73 31t65.5 32t52 32l30 -21q-29 -18 -64 -35.5t-73 -34t-78.5 -32t-79.5 -28.5v-165q0 -12 2.5 -19.5t9.5 -12t19.5 -6t32.5 -1.5h207q18 0 28.5 5.5t16.5 21t9 43.5t5 74q12 -9 29 -14q-2 -47 -6 -78t-13 -49t-25.5 -25t-43.5 -7h-204z"     />

    
    <glyph glyph-name="cid10076" unicode="&#x4EA4;" d="M700 422q-30 -84 -73.5 -150t-99.5 -120q168 -142 428 -186q-5 -5 -11 -13t-10 -15q-262 50 -430 194q-85 -74 -193.5 -123.5t-241.5 -83.5q-2 6 -8.5 14.5t-11.5 14.5q134 29 241.5 77t191.5 120q-57 54 -101.5 120t-75.5 144l27 11q59 -150 172 -254q109 102 166 259z
M367 586q-25 -32 -56 -64t-65 -62t-68.5 -57t-66.5 -49q-4 5 -11 12.5t-12 12.5q33 20 67.5 45.5t67.5 54t63 58.5t54 60zM662 593q36 -24 73.5 -52.5t72.5 -58t65 -58t50 -52.5l-24 -20q-20 24 -49 53t-63.5 59t-72.5 59.5t-74 53.5zM922 651h-848v29h848v-29zM509 701
q-5 13 -13 28.5t-18 32.5t-21 33.5t-22 31.5l26 10q23 -29 44 -64t32 -60z"     />

    
    <glyph glyph-name="cid10081" unicode="&#x4EA7;" d="M921 425h-753v-106q0 -42 -3.5 -92t-14 -102t-30 -103t-50.5 -96q-4 5 -11 11t-12 8q30 43 48 91.5t27.5 98t13 97t3.5 88.5v134h476q11 18 24 41t25 47.5t23 49t19 44.5l28 -12q-19 -42 -43 -88t-47 -82h277v-29zM372 479q-7 15 -17 34t-22 39t-25.5 40t-26.5 37l24 8
q13 -17 26.5 -36.5t26 -39t23 -38t16.5 -33.5zM890 663h-772v29h410q-6 13 -14.5 29t-19 32.5t-22.5 32.5t-24 30l25 12q25 -29 48 -63.5t35 -60.5l-23 -12h357v-29z"     />

    
    <glyph glyph-name="cid10087" unicode="&#x4EAB;" d="M943 134h-429v-162q0 -19 -6 -27.5t-23 -13.5q-18 -5 -57 -5h-108q-2 6 -5 12.5t-7 13.5q60 -2 101 -1.5t54 1.5q14 1 18 4.5t4 14.5v163h-425v29h425v77q71 13 146 35t133 48h-614v29h664l8 2l24 -18q-33 -20 -73 -37t-84 -32t-88.5 -27t-86.5 -21v-56h429v-29zM202 434
v183h601v-183h-601zM231 463h543v125h-543v-125zM934 701h-869v29h441q-10 23 -24.5 49.5t-28.5 49.5l27 8q16 -25 32.5 -54.5t27.5 -52.5h394v-29z"     />

    
    <glyph glyph-name="cid10089" unicode="&#x4EAC;" d="M932 694v-29h-860v29h434q-14 29 -35.5 65.5t-44.5 66.5l27 9q12 -16 24.5 -34.5t24 -37t21.5 -36.5t17 -33h392zM728 201q27 -26 55.5 -55.5t55 -58.5t50 -56.5t39.5 -48.5l-25 -19q-15 22 -38 50t-49.5 58t-55.5 60t-56 56zM516 280v-302q0 -21 -7 -30t-25 -14
q-19 -5 -61 -5.5t-114 0.5q-2 6 -5.5 13t-7.5 14q65 -2 109 -1.5t58 1.5q15 1 19.5 5.5t4.5 15.5v303h-283v271h604v-271h-292zM233 309h546v213h-546v-213zM289 193q-18 -29 -41.5 -59.5t-49.5 -60t-55 -56t-57 -48.5q-4 4 -10.5 9.5t-11.5 7.5q27 21 55.5 47.5t54 54.5
t48 57.5t37.5 56.5z"     />

    
    <glyph glyph-name="cid10121" unicode="&#x4EBF;" d="M816 18q21 0 34 8.5t20.5 32.5t11 66.5t5.5 110.5q5 -4 14 -7t15 -4q-3 -76 -8 -122.5t-15.5 -71.5t-28.5 -33t-47 -8h-304q-132 0 -132 81q0 13 3.5 29t18 43t43.5 68.5t80 104.5t128 151.5t187 209.5h-447v29h478l8 2l21 -10q-2 -3 -8 -7q-114 -126 -194.5 -218
t-134 -157t-84.5 -107t-46.5 -69t-19.5 -42t-4 -26q0 -28 27.5 -40.5t69.5 -12.5zM342 821q-21 -53 -46 -103.5t-53 -98.5v-687h-29v639q-35 -54 -72 -101t-76 -87q-3 5 -10 12t-12 11q40 39 78.5 87t73 102.5t64.5 113.5t53 120z"     />

    
    <glyph glyph-name="cid10141" unicode="&#x4ECB;" d="M527 816q-3 -6 -6.5 -11.5t-6.5 -10.5q36 -54 87.5 -107t112 -100.5t125.5 -85t128 -59.5q-5 -5 -11 -12t-11 -14q-61 24 -124 62t-122 85t-110.5 100.5t-89.5 107.5q-37 -58 -86.5 -112.5t-106.5 -102t-119.5 -86.5t-125.5 -64q-3 6 -8 14t-10 13q69 25 137 67
t128.5 94.5t111 113t83.5 123.5zM673 454h29v-529h-29v529zM299 453h29v-144q0 -50 -6.5 -101t-30 -100.5t-68.5 -95t-122 -85.5q-3 5 -9.5 11.5t-11.5 10.5q75 38 118.5 81.5t66 90t28.5 94.5t6 94v144z"     />

    
    <glyph glyph-name="cid10146" unicode="&#x4ECE;" d="M699 799q-8 -92 -17 -174.5t-23 -157.5q13 -65 35.5 -136.5t57 -140t81.5 -129t109 -102.5q-5 -4 -10.5 -10.5t-9.5 -12.5q-57 42 -102 97.5t-78.5 118t-56.5 127.5t-38 125q-33 -150 -91.5 -266.5t-160.5 -204.5q-4 4 -12 10t-14 9q80 65 133 151t86.5 192t51.5 232.5
t29 273.5zM472 161q-14 30 -34.5 66.5t-45 75.5t-51.5 79t-54 76q-23 -166 -70 -298.5t-133 -232.5q-4 4 -12 10t-14 10q63 69 104 158t66.5 196.5t39 232t21.5 265.5l30 -2q-5 -81 -11.5 -155.5t-14.5 -143.5q29 -38 59 -80.5t57 -84.5t49.5 -81.5t36.5 -70.5z"     />

    
    <glyph glyph-name="cid10180" unicode="&#x4EE5;" d="M812 793q-12 -185 -37 -325.5t-77 -246.5q36 -31 73 -67t71 -72.5t62.5 -71t47.5 -62.5l-26 -18q-18 27 -44.5 60t-58.5 68.5t-67.5 71t-70.5 66.5q-50 -91 -128 -157.5t-197 -117.5q-3 5 -9.5 13t-11.5 12q128 50 209.5 123t129.5 176t70 239t33 311zM480 230
q2 -5 4.5 -13t4.5 -13q-110 -48 -174 -76t-98.5 -44t-47.5 -23.5t-20 -14.5q-3 6 -8.5 14.5t-10.5 13.5q6 3 14 8.5t15.5 14t12.5 19.5t5 26v601h29v-632zM548 493q-11 25 -28.5 55.5t-38.5 62.5t-44.5 64t-46.5 59l25 12q23 -28 46.5 -59.5t44.5 -63.5t39 -62t29 -54z"     />

    
    <glyph glyph-name="cid10185" unicode="&#x4EEA;" d="M893 769q-17 -92 -39 -175.5t-51.5 -158.5t-69 -142.5t-90.5 -125.5q60 -72 137 -125.5t174 -88.5q-6 -5 -12.5 -12t-10.5 -14q-96 36 -172 90.5t-136 126.5q-65 -67 -147.5 -121t-191.5 -96q-2 5 -7.5 12t-10.5 12q109 41 192 95t146 121q-87 111 -141.5 258.5
t-87.5 327.5l29 5q31 -174 83.5 -316.5t137.5 -251.5q49 57 86.5 122.5t66 139t49 154.5t36.5 170zM320 819q-47 -117 -111 -222v-666h-29v619q-32 -48 -66 -90.5t-69 -78.5q-3 5 -10 12.5t-12 10.5q40 39 78.5 87t73 102.5t64 113.5t52.5 120zM675 575q-9 21 -23 47.5
t-31 55t-36 57.5t-38 54l26 13q19 -25 38 -53.5t36 -56.5t31 -54t23 -46z"     />

    
    <glyph glyph-name="cid10188" unicode="&#x4EEC;" d="M909 -12q0 -24 -8 -35t-25 -16t-54 -5.5t-97 -0.5q-2 7 -5.5 16t-7.5 17q52 -2 91.5 -1.5t52.5 1.5t18 5.5t5 18.5v772h-301v29h331v-801zM427 827q16 -23 33.5 -49t33 -52t28.5 -50t22 -43l-27 -13q-8 19 -21 43.5t-28.5 51t-32.5 53t-33 49.5zM361 647h29v-719h-29v719
zM277 814q-33 -109 -77 -214v-671h-29v607q-23 -47 -48.5 -89t-51.5 -79q-4 5 -11 12t-12 11q31 40 60 89.5t54.5 105t47 115.5t38.5 120z"     />

    
    <glyph glyph-name="cid10207" unicode="&#x4EF7;" d="M648 826q-5 -11 -11 -22t-13 -23q29 -48 69 -96t84.5 -90.5t91 -78t90.5 -58.5q-5 -5 -10.5 -11.5t-10.5 -12.5q-42 25 -87.5 60.5t-89 77.5t-83 89t-69.5 94q-26 -43 -59.5 -87.5t-74 -88t-88.5 -84t-103 -75.5q-9 11 -22 19q66 40 122 89.5t100.5 101.5t77.5 104t53 98
zM746 456h29v-525h-29v525zM453 456h29v-137q0 -42 -5 -92.5t-23 -103t-54 -104.5t-99 -97q-4 5 -10 11.5t-11 10.5q61 41 95.5 90t51.5 99.5t21.5 98.5t4.5 87v137zM320 823q-21 -59 -46 -115.5t-54 -108.5v-670h-29v618q-27 -46 -56 -87t-61 -76q-4 5 -10.5 12t-11.5 12
q36 39 70.5 87t65 102.5t57 113.5t46.5 119z"     />

    
    <glyph glyph-name="cid10245" unicode="&#x4F11;" d="M663 534q26 -65 61.5 -130.5t76 -125t84 -108.5t85.5 -81q-6 -5 -13 -11.5t-11 -11.5q-43 36 -87 88t-85.5 114.5t-77.5 130.5t-62 135h-5v-606h-29v606h-2q-26 -72 -60.5 -141.5t-74.5 -131.5t-84 -113.5t-89 -87.5q-5 6 -12 12t-13 11q44 32 87.5 81t83 108.5t74 126.5
t59.5 135h-279v29h310v256h29v-256h318v-29h-284zM350 815q-48 -118 -116 -221v-663h-29v620q-36 -49 -74.5 -93t-80.5 -81q-3 5 -9.5 12.5t-11.5 12.5q45 37 87 84t79.5 101t69.5 113.5t56 122.5z"     />

    
    <glyph glyph-name="cid10255" unicode="&#x4F18;" d="M944 585v-29h-379q-6 -92 -20.5 -181.5t-43 -170t-74 -149t-112.5 -116.5q-4 4 -11 8t-12 7q66 47 110 113.5t72 145t42 166.5t20 177h-249v29h251q4 60 5 119.5t1 115.5h29q0 -57 -1 -116t-5 -119h377zM862 -11q13 0 21 5.5t13 22t7 47t3 79.5q6 -5 13.5 -8.5t14.5 -5.5
q-2 -50 -5 -83t-10.5 -52t-20.5 -26.5t-35 -7.5h-139q-22 0 -36 2.5t-22.5 9.5t-12 19t-3.5 31v437h29v-437q0 -20 8 -26.5t36 -6.5h139zM328 821q-23 -63 -51 -122t-60 -115v-655h-29v606q-27 -42 -55.5 -80.5t-59.5 -71.5q-3 5 -9.5 12t-11.5 12q37 39 72.5 87t67 102.5
t59 113.5t48.5 119zM844 632q-11 15 -27.5 34.5t-36 40t-40 41t-40.5 37.5l21 14q19 -17 40 -36.5t40.5 -39.5t36 -39t28.5 -34z"     />

    
    <glyph glyph-name="cid10260" unicode="&#x4F1A;" d="M546 814l-12 -18t-12 -17q31 -39 77.5 -82t102.5 -84t119 -76.5t129 -59.5q-5 -5 -11.5 -13t-10.5 -14q-65 26 -127 62t-117.5 77t-101.5 83.5t-78 81.5q-75 -94 -182.5 -173.5t-240.5 -142.5q-4 5 -11 11.5t-13 10.5q76 35 145 76.5t127.5 88t105 97t77.5 103.5z
M746 511v-29h-486v29h486zM90 320h826v-29h-459q-59 -82 -121.5 -157.5t-125.5 -134.5l558 51q-33 40 -70.5 79.5t-74.5 72.5l24 14q34 -31 68.5 -66t65.5 -71t56.5 -69.5t42.5 -61.5l-26 -17q-12 20 -28 43t-36 48q-141 -13 -241.5 -22.5t-169 -16t-109.5 -11t-64.5 -7.5
t-34 -5.5t-16.5 -4.5q-2 6 -5 16.5t-6 17.5q13 2 31 17.5t41 38.5q11 10 33.5 34.5t50 58t58.5 73t58 80.5h-326v29z"     />

    
    <glyph glyph-name="cid10318" unicode="&#x4F46;" d="M960 5v-29h-662v29h662zM333 819q-23 -59 -51 -114.5t-60 -107.5v-666h-29v618q-32 -47 -66 -89.5t-69 -78.5q-3 5 -10 12.5t-12 11.5q40 38 78.5 86t73 102.5t64.5 113.5t53 119zM862 166h-465v585h465v-585zM833 446h-407v-251h407v251zM833 722h-407v-247h407v247z
"     />

    
    <glyph glyph-name="cid10329" unicode="&#x4F4D;" d="M953 2v-29h-628v29h355q15 52 31 119t31 138.5t27.5 141.5t21.5 128l33 -8q-11 -59 -24.5 -127.5t-28.5 -138t-30 -135t-30 -118.5h242zM342 819q-23 -58 -51 -114t-60 -108v-665h-29v618q-32 -48 -66 -90t-69 -79q-3 5 -10 12.5t-12 11.5q40 39 78.5 87t73 102t64.5 113
t53 120zM526 67q-4 40 -11.5 94t-18 113.5t-23 120.5t-25.5 115l28 6q13 -56 26 -117t23.5 -120t18.5 -112t12 -91zM905 606h-530v29h530v-29zM636 660q-6 33 -20 78t-29 83l27 9q7 -19 14.5 -40.5t14.5 -42.5t13 -40.5t9 -35.5z"     />

    
    <glyph glyph-name="cid10350" unicode="&#x4F59;" d="M534 826q-5 -5 -8.5 -11t-8.5 -11q77 -101 188.5 -176.5t259.5 -138.5q-5 -5 -11 -11.5t-10 -12.5q-144 65 -254.5 142t-188.5 178q-42 -49 -94 -97t-109.5 -91.5t-118 -81t-120.5 -65.5l-11 11t-11 10q66 30 133.5 71.5t129.5 89.5t115.5 100.5t93.5 105.5zM522 327h398
v-29h-398v-318q0 -22 -7 -31t-24 -14t-53.5 -5.5t-99.5 0.5q-3 14 -13 28q55 -2 94.5 -1.5t51.5 1.5q13 1 17.5 5t4.5 16v319h-407v29h407v164h-253v29h525v-29h-243v-164zM687 213q31 -24 64 -52t63 -56.5t56 -56t43 -49.5l-23 -21q-17 23 -43 50.5t-56 57t-62.5 58
t-63.5 52.5zM328 198q-23 -32 -51 -63t-58 -60t-62 -55t-62 -47q-4 4 -12 10t-13 9q63 41 124.5 98t105.5 118z"     />

    
    <glyph glyph-name="cid10354" unicode="&#x4F5C;" d="M615 629v-185h316v-29h-316v-191h329v-29h-329v-265h-29v699h-101q-34 -66 -72.5 -123t-80.5 -103l-12 9t-13 10q35 36 67.5 81t62 96t54.5 105.5t45 110.5l28 -7q-14 -38 -30 -76t-34 -74h450v-29h-335zM347 819q-46 -116 -110 -221v-667h-30v618q-63 -94 -135 -168
q-3 5 -10 12t-12 11q40 39 78.5 87t73 102.5t64 113.5t52.5 120z"     />

    
    <glyph glyph-name="cid10361" unicode="&#x4F60;" d="M800 426q24 -41 46 -87t41 -91.5t33 -89t21 -78.5l-28 -9q-8 35 -22 78.5t-32.5 89.5t-40 91.5t-44.5 86.5zM664 595v-618q0 -20 -6 -29t-20 -14q-15 -5 -43.5 -5.5t-74.5 -0.5q-2 7 -5 15t-7 16q40 -2 70 -1.5t40 1.5q17 0 17 17v619h-192q-20 -56 -45 -104.5t-53 -88.5
q-4 3 -12 8.5t-13 8.5q27 37 51 83.5t44 99t36.5 109t28.5 114.5l30 -6q-11 -51 -25 -99.5t-31 -95.5h468l7 2l18 -8q-5 -24 -11 -51t-12 -52.5t-11.5 -48.5t-10.5 -41l-25 6q8 31 17 76t18 88h-248zM320 85q51 63 90 151t63 185l31 -6q-26 -102 -66.5 -192.5t-90.5 -155.5z
M320 819q-47 -117 -111 -222v-666h-29v619q-32 -48 -66 -90.5t-69 -78.5q-3 5 -10 12.5t-12 11.5q40 39 78.5 87t73 102t64 113t52.5 120z"     />

    
    <glyph glyph-name="cid10410" unicode="&#x4F7F;" d="M638 292q-5 -55 -21.5 -108.5t-54.5 -102.5q81 -49 182 -81t214 -47q-12 -12 -19 -28q-112 17 -212.5 50.5t-183.5 84.5q-39 -42 -99 -76.5t-149 -60.5q-3 5 -7.5 12t-8.5 12q87 24 144.5 57t95.5 71q-54 36 -96.5 79.5t-71.5 95.5l26 12q28 -49 68.5 -90t91.5 -75
q36 45 51.5 94t20.5 101h-262v259h266v126h-303v29h303v123h29v-123h312v-29h-312v-126h273v-259h-277zM642 522v-122v-39.5t-2 -39.5h246v201h-244zM611 321q2 20 2 39.5v39.5v122h-237v-201h235zM328 824q-23 -58 -51 -113t-60 -107v-681h-29v635q-32 -48 -66.5 -90
t-70.5 -78q-4 5 -11 12l-12 12q40 38 79 85.5t74 101t65.5 112t53.5 118.5z"     />

    
    <glyph glyph-name="cid10456" unicode="&#x4F9B;" d="M952 274v-29h-649v29h174v294h-148v29h148v219h29v-219h246v219h29v-219h157v-29h-157v-294h171zM506 274h246v294h-246v-294zM749 168q27 -26 54.5 -55.5t52.5 -59t45.5 -58t34.5 -51.5l-26 -17q-14 24 -34 52.5t-44.5 58.5t-51.5 59.5t-53 55.5zM521 164
q-36 -66 -85.5 -127.5t-97.5 -106.5q-5 4 -13 10t-14 10q51 43 99.5 101.5t81.5 120.5zM324 818q-23 -58 -51 -113.5t-60 -108.5v-665h-29v618q-32 -47 -66 -89.5t-69 -78.5q-3 5 -10 12t-12 11q40 39 78.5 87t73 102.5t64 113.5t52.5 119z"     />

    
    <glyph glyph-name="cid10460" unicode="&#x4F9D;" d="M943 463q-25 -24 -55.5 -49t-62 -50t-63.5 -47.5t-60 -40.5q50 -100 114 -176t145 -117q-5 -5 -11.5 -12t-11.5 -13q-66 37 -121.5 96.5t-100.5 136.5t-79 167.5t-58 188.5q-28 -43 -60.5 -83t-67.5 -76v-401l200 80q2 -6 4 -14t4 -13q-81 -33 -129.5 -52.5t-74.5 -31
t-37 -17.5t-17 -11v-1q-2 6 -7 14t-10 14q9 5 23.5 19.5t14.5 43.5v341q-38 -36 -77 -67.5t-80 -58.5q-4 5 -11.5 12t-13.5 11q49 30 97 68t91.5 81.5t81.5 92.5t68 101h-289v29h644v-29h-321l-13 -23q17 -75 40 -145t53 -134q28 19 59 42.5t61.5 48t58.5 49t49 45.5z
M320 823q-47 -126 -111 -237v-658h-29v609q-27 -43 -55.5 -81t-59.5 -71q-3 5 -9.5 12t-11.5 12q37 39 72.5 87t67 102.5t59 113.5t48.5 119zM634 647q-5 16 -14 36.5t-19.5 42t-22.5 43.5t-24 42l26 9q12 -19 24.5 -40.5t23.5 -43t19.5 -41.5t14.5 -36z"     />

    
    <glyph glyph-name="cid10513" unicode="&#x4FBF;" d="M645 271q-7 -56 -26.5 -108.5t-66.5 -100.5q81 -42 182.5 -66.5t219.5 -34.5q-12 -12 -18 -27q-117 12 -219.5 38t-184.5 71q-42 -35 -102.5 -65.5t-148.5 -53.5q-3 6 -7.5 13.5t-9.5 12.5q84 21 142.5 48t98.5 59q-55 32 -97 73.5t-70 92.5l26 11q26 -49 67 -88t95 -69
q46 44 65 93t25 101h-257v357h261v109h-301v29h622v-29h-292v-109h246v-357h-250zM866 436h-217v-65v-35.5t-2 -35.5h219v136zM649 599v-134h217v134h-217zM388 465h232v134h-232v-134zM618 300q2 18 2 35v35v66h-232v-136h230zM308 820q-41 -122 -99 -230v-659h-29v607
q-26 -45 -53.5 -84t-56.5 -73q-3 5 -9.5 12t-12.5 11q35 39 68.5 87.5t63 103t55 113.5t45.5 119z"     />

    
    <glyph glyph-name="cid10523" unicode="&#x4FC3;" d="M957 -19q-5 -7 -8 -15.5t-5 -14.5h-146q-65 0 -122.5 8.5t-106 32.5t-87.5 67.5t-67 113.5q-20 -77 -52.5 -138t-80.5 -109q-4 4 -12 10t-14 9q72 67 109 167t51 231l30 -3q-4 -32 -8.5 -62.5t-11.5 -59.5q29 -91 76.5 -140t108.5 -71v457h-228v316h494v-316h-237v-188
h259v-29h-259v-249q37 -10 76.5 -13.5t82.5 -3.5h158zM412 493h436v258h-436v-258zM285 818q-35 -103 -82 -199v-691h-29v634q-29 -54 -61 -102t-67 -89q-3 5 -10 12t-12 11q35 40 68.5 89t63 104.5t55 115.5t45.5 122z"     />

    
    <glyph glyph-name="cid49" unicode="&#x50;" d="M276 353q117 0 173 40.5t56 134.5q0 48 -14.5 79.5t-43.5 50.5t-72.5 27t-102.5 8h-125v-340h129zM110 726h175q62 0 110.5 -10.5t81.5 -34t50.5 -61.5t17.5 -92q0 -106 -66.5 -157t-189.5 -51h-142v-320h-37v726z"  horiz-adv-x="598"   />

    
    <glyph glyph-name="cid10729" unicode="&#x503C;" d="M949 -2v-29h-666v29h105v570h170q8 24 15 55t14 64h-263v29h268q6 31 11 60.5t9 55.5l33 -6q-5 -26 -10 -53.5t-12 -56.5h288v-29h-294q-8 -33 -15 -63.5t-14 -55.5h258v-570h103zM417 136h400v116h-400v-116zM817 396h-400v-115h400v115zM417 539v-114h400v114h-400z
M417 -2h400v109h-400v-109zM320 823q-23 -63 -51 -122.5t-60 -114.5v-657h-29v608q-27 -43 -55.5 -81t-59.5 -71q-3 5 -9.5 12t-11.5 12q37 39 72.5 87t67.5 102.5t59.5 113.5t48.5 119z"     />

    
    <glyph glyph-name="cid10934" unicode="&#x50AC;" d="M947 -19h-533v-53h-29v439q-24 -38 -51 -71.5t-55 -62.5l-12.5 10t-13.5 10q62 56 111.5 136t80.5 171l30 -7q-11 -32 -25 -63.5t-29 -60.5h248q-7 25 -22.5 58t-33.5 61l24 9q20 -28 36.5 -62t22.5 -58l-16 -8h257v-29h-260v-107h230v-29h-230v-112h230v-29h-230v-113
h270v-29zM648 264h-234v-112h234v112zM648 400h-234v-107h234v107zM414 10h234v113h-234v-113zM278 815q-16 -54 -35 -105t-40 -101v-681h-29v618q-48 -100 -106 -178q-4 5 -10.5 12t-11.5 12q31 40 60.5 89.5t55.5 105t48 115t39 120.5zM901 580h-528v204h29v-175h226v219
h29v-219h215v175h29v-204z"     />

    
    <glyph glyph-name="cid50" unicode="&#x51;" d="M651 -156q-14 -5 -36.5 -8.5t-48.5 -3.5q-44 0 -81 12t-66.5 33t-50.5 49.5t-34 61.5q-60 4 -110 33t-86 78t-56 116.5t-20 149.5q0 86 22 155t61 118t93 75t119 26q64 0 118.5 -26t93.5 -75t61 -118t22 -155q0 -83 -20.5 -150.5t-57 -116.5t-87 -77.5t-110.5 -32.5
q24 -57 73 -88t120 -31q25 0 42 2.5t30 6.5zM101 365q0 -78 18.5 -141.5t52 -109t81 -70t104.5 -24.5t104.5 24.5t81 70t52 109t18.5 141.5t-18.5 140.5t-52 107t-81 68t-104.5 23.5t-104.5 -23.5t-81 -68t-52 -107t-18.5 -140.5z"  horiz-adv-x="714"   />

    
    <glyph glyph-name="uni5165" unicode="&#x5165;" d="M337 793q80 -56 132.5 -125t92 -144.5t73 -153t75 -150t98 -137t142.5 -112.5q-5 -6 -9.5 -14t-6.5 -16q-64 36 -111.5 80.5t-84.5 95t-66 106t-55.5 112l-53 113t-57.5 110.5q-28 -112 -66.5 -205.5t-91 -171t-119.5 -139.5t-152 -111q-4 5 -12 12t-15 12
q88 47 157 110.5t121.5 143t90 176t63.5 210.5q-32 49 -71.5 93t-91.5 81z"     />

    
    <glyph glyph-name="cid11276" unicode="&#x5168;" d="M532 830q-4 -6 -8 -11.5t-8 -12.5q96 -120 211 -212t240 -169q-6 -4 -13 -11t-11 -13q-122 79 -233 171t-210 211q-40 -56 -90.5 -110.5t-107.5 -103.5t-118.5 -91t-124.5 -74q-4 5 -10.5 11.5t-12.5 11.5q69 34 137 80.5t129.5 100.5t113.5 114t90 120zM514 -10h413v-29
h-852v29h410v209h-287v29h287v197h-286v29h609v-29h-294v-197h302v-29h-302v-209z"     />

    
    <glyph glyph-name="cid11286" unicode="&#x516C;" d="M639 802q27 -57 65 -115.5t80.5 -112t86.5 -99t85 -75.5q-6 -5 -13 -12t-12 -13q-40 33 -84.5 80t-87 102.5t-81.5 115.5t-67 117zM653 291q35 -39 72 -83.5t71 -88.5t62.5 -85t47.5 -74l-26 -16q-14 23 -32.5 51t-40.5 58q-142 -8 -242.5 -13.5t-169 -9.5t-109.5 -6.5
t-64.5 -5t-33.5 -4t-16 -3.5q-2 5 -5 15t-7 17q15 3 36.5 28t49.5 60q14 18 42.5 57.5t63 92t72 114t69.5 123.5l29 -14q-34 -61 -70 -122t-73.5 -119.5t-76 -112t-78.5 -98.5l563 29q-38 51 -78.5 101.5t-80.5 95.5zM380 786q-52 -123 -127.5 -228.5t-162.5 -180.5
q-4 4 -12 10.5t-14 9.5q89 72 164 175.5t123 221.5z"     />

    
    <glyph glyph-name="cid11295" unicode="&#x5171;" d="M953 288v-29h-901v29h249v282h-202v29h202v220h29v-220h341v220h29v-220h212v-29h-212v-282h253zM330 288h341v282h-341v-282zM627 181q37 -27 78 -57.5t80 -61t73.5 -59.5t58.5 -51l-23 -22q-24 22 -58 51.5t-72.5 60.5t-79.5 62.5t-79 58.5zM383 170
q-26 -33 -59.5 -66.5t-71.5 -65t-79 -59.5t-80 -51q-4 5 -9.5 11t-10.5 11q39 21 79 48.5t77.5 57.5t69.5 62t55 64z"     />

    
    <glyph glyph-name="cid11304" unicode="&#x5177;" d="M649 127q41 -19 82 -40t79 -42.5t72.5 -42.5t61.5 -40l-22 -25q-26 19 -59.5 40t-71.5 42.5t-78.5 43.5t-81.5 42zM376 111q-29 -26 -65.5 -51.5t-76 -49t-81 -44.5t-80.5 -37q-3 5 -9.5 11.5l-11.5 11.5q39 16 80.5 36.5t80.5 43t72.5 47t56.5 47.5zM943 156h-883v29
h161v595h568v-595h154v-29zM760 604h-510v-117h510v117zM250 458v-120h510v120h-510zM250 751v-118h510v118h-510zM250 185h510v124h-510v-124z"     />

    
    <glyph glyph-name="cid11323" unicode="&#x5185;" d="M892 -10q0 -25 -8 -36.5t-28 -16.5t-65 -5.5t-114 -0.5q-2 8 -5.5 17t-7.5 17q63 -2 110.5 -2t63.5 1q15 1 20 6.5t5 19.5v635h-349q-2 -35 -6 -73t-15 -77q42 -36 87.5 -78t88 -83.5t79.5 -80t63 -68.5l-24 -20q-24 30 -58.5 67t-75 77.5t-84 81t-85.5 76.5
q-13 -39 -34.5 -78.5t-54 -78.5t-77.5 -76.5t-105 -71.5q-3 4 -9.5 10.5t-11.5 10.5q94 52 150.5 111t87.5 119.5t42 119.5t13 112h-347v-698h-29v727h377v25v151h29v-151v-25h377v-664z"     />

    
    <glyph glyph-name="cid11391" unicode="&#x51B3;" d="M954 327h-319q36 -138 114.5 -234.5t202.5 -137.5q-5 -5 -11 -12t-10 -14q-125 48 -205.5 150t-118.5 248h-11q-9 -54 -29 -108t-58 -105.5t-96.5 -99t-144.5 -88.5q-3 5 -8 12t-10 12q83 38 139.5 82.5t93 93t56 99.5t28.5 102h-266v29h271q5 40 6 78.5t1 74.5v124h-220
v29h220v165h29v-165h228v-306h118v-29zM608 510q0 -37 -1.5 -75.5t-6.5 -78.5h207v277h-199v-123zM52 -5q19 30 41 69t45.5 83t46 89.5t42.5 87.5l22 -19q-18 -39 -39.5 -83t-44 -88t-45.5 -85t-43 -74zM218 589q-11 19 -28 42.5t-37.5 48.5t-43 49.5t-44.5 45.5l22 14
q22 -20 45 -44t43.5 -48.5t38 -47.5t29.5 -42z"     />

    
    <glyph glyph-name="cid11399" unicode="&#x51B7;" d="M631 822l-18 -33q27 -47 65 -94.5t81 -90t88.5 -78t87.5 -58.5l-11.5 -11.5t-10.5 -12.5q-40 24 -83.5 59.5t-85.5 77.5t-80 88.5t-67 93.5q-57 -90 -137.5 -173.5t-180.5 -149.5q-4 4 -10 9t-11 8q57 37 108.5 81.5t96 92.5t80 98t59.5 100zM647 421q-9 12 -21.5 27
t-27 31t-30 32t-29.5 30l24 12q15 -14 30.5 -29.5t30 -31t27 -30t21.5 -26.5zM836 353q-21 -38 -50 -79.5t-60.5 -81.5t-63.5 -76t-58 -61q36 -29 67 -56t51 -50l-20 -19q-20 21 -49.5 48t-63.5 54.5t-71 55t-71 50.5l21 16q27 -18 55.5 -38.5t56.5 -43.5q24 22 53 54
t58 67.5t55 72t46 68.5h-430v29h449l5 2zM87 790q21 -23 42 -48.5t40 -51t34.5 -50t25.5 -43.5l-25 -17q-10 19 -25.5 44t-34.5 51t-39.5 52.5t-41.5 49.5zM51 -3q16 30 36 69t40.5 83t40 89.5t36.5 87.5l22 -17q-15 -40 -33.5 -84t-38 -88t-39.5 -85t-38 -74z"     />

    
    <glyph glyph-name="cid11501" unicode="&#x51EF;" d="M898 -33q7 0 11.5 5.5t7 20.5t3.5 41.5t2 67.5q11 -10 26 -13q-1 -43 -3 -71t-7.5 -45t-14.5 -24t-23 -7h-63q-31 0 -40.5 12t-9.5 50v734h-180v-250q0 -62 -4 -133.5t-17 -145.5t-37.5 -145.5t-66.5 -133.5q-4 5 -11.5 10.5t-13.5 8.5q41 60 65 129t36.5 140t16 140.5
t3.5 130.5v278h238v-765q0 -23 4 -29t19 -6h59zM446 90q0 -6 0.5 -14t1.5 -13q-107 -29 -169.5 -46t-96.5 -26.5t-46 -15t-18 -9.5q-2 6 -7 16t-9 15q6 3 11.5 12.5t5.5 36.5v219h313v155h-332v29h361v-212h-15v-1h-298v-222zM487 559h-385v201h29v-172h148v236h29v-236h150
v172h29v-201z"     />

    
    <glyph glyph-name="cid11520" unicode="&#x51FA;" d="M881 334v-402h-29v60h-728v343h30v-314h331v388h-323v325h29v-296h294v392h29v-392h298v296h29v-325h-327v-388h338v313h29z"     />

    
    <glyph glyph-name="cid11540" unicode="&#x5206;" d="M658 805q24 -54 58 -108.5t72.5 -103.5t80 -90t80.5 -68q-14 -10 -24 -24q-38 29 -79.5 72t-80.5 94t-73 107t-59 110zM802 441v-8q0 -3 -0.5 -6.5t-0.5 -5.5q-6 -118 -12.5 -200t-14 -135.5t-18 -83.5t-23.5 -43t-27.5 -17t-37.5 -4q-23 -1 -69 0.5t-96 5.5q0 6 -2 14
t-7 15q56 -5 103.5 -6.5t64.5 -1.5q18 0 28 2t17 9q11 11 20.5 38.5t17 78.5t14.5 129t13 190h-336q-11 -77 -31 -150.5t-58.5 -137t-100 -114.5t-155.5 -84q-3 5 -8.5 11t-10.5 11q92 31 152 80t97 110.5t56 131.5t28 142h-225v29h622zM371 795q-49 -123 -124 -223.5
t-165 -169.5q-4 4 -12 10t-13 10q91 66 165 165t120 216z"     />

    
    <glyph glyph-name="cid11567" unicode="&#x521B;" d="M898 818v-829q0 -25 -9 -35t-26 -15t-55 -5.5t-107 0.5q-2 5 -5.5 13t-8.5 15q58 -2 100 -1.5t55 1.5q14 1 20.5 6.5t6.5 19.5v830h29zM698 169h-29v542h29v-542zM359 818q-5 -11 -10.5 -22t-11.5 -22q34 -34 70.5 -72t69.5 -75.5t61.5 -72.5t48.5 -62l-22 -17
q-19 26 -46.5 59.5t-59.5 70.5t-66.5 74.5t-68.5 70.5q-47 -87 -114 -167.5t-148 -145.5q-5 4 -12 8t-12 7q49 37 93 82t81 93t67 98.5t50 99.5zM462 -29q19 0 30.5 6t18.5 22.5t9.5 47t4.5 80.5q14 -11 30 -14q-2 -51 -6.5 -84t-14 -52.5t-27 -27t-45.5 -7.5h-212
q-29 0 -48 3t-30.5 10.5t-16 21.5t-4.5 36v448h336v-7q0 -3 -0.5 -6t-0.5 -5q-4 -68 -8 -115t-9 -77.5t-11.5 -47.5t-15.5 -26t-19.5 -12t-27.5 -4q-14 0 -39 0.5t-52 2.5q-2 16 -9 29q32 -3 58 -4t37 -1t17.5 1.5t11.5 7.5q6 6 11 21t9.5 43t9 69.5t8.5 101.5h-277v-419
q0 -13 2.5 -21t10 -12.5t20.5 -6.5t34 -2h215z"     />

    
    <glyph glyph-name="cid11590" unicode="&#x522B;" d="M898 812v-829q0 -25 -9 -35t-26 -15q-18 -5 -55.5 -5.5t-106.5 0.5q-2 5 -5.5 13t-8.5 15q58 -2 100 -1.5t55 1.5q14 1 20.5 6.5t6.5 19.5v830h29zM653 712h29v-544h-29v544zM496 337q-1 -4 -1 -8v-12q-5 -94 -9.5 -158.5t-10.5 -106t-13 -64.5t-16 -33q-9 -11 -21 -14.5
t-31 -4.5q-16 0 -47 0.5t-63 2.5q-2 17 -9 30q37 -4 69 -4.5t43 -0.5q13 0 20.5 1.5t13.5 8.5q7 7 12.5 28t11 60.5t10 99.5t9.5 146h-182q-8 -63 -22 -119.5t-39 -105t-62 -88.5t-90 -69q-4 5 -11 11.5t-13 9.5q51 27 87 64.5t60.5 83.5t38.5 100t22 113h-194v29h198
q3 27 4.5 54.5t3.5 56.5h30q-3 -59 -9 -111h210zM486 478h-380v307h380v-307zM457 756h-322v-249h322v249z"     />

    
    <glyph glyph-name="cid11596" unicode="&#x5230;" d="M893 808v-794q0 -25 -7.5 -35.5t-24.5 -15.5q-18 -5 -54 -5.5t-88 -0.5q-1 7 -4.5 17t-8.5 18q49 -2 87 -2t51 1q12 1 16 5t4 17v795h29zM660 750h29v-604h-29v604zM427 660q22 -25 45.5 -54t45 -58t40.5 -55.5t31 -47.5l-23 -16l-23 34.5t-28 40.5q-86 -9 -147.5 -16
t-104 -12t-68.5 -8t-41 -5.5t-22 -4.5t-12 -4q-2 6 -4.5 16.5t-6.5 16.5q11 2 23 14.5t26 31.5q6 9 19.5 28.5t30 45.5t34.5 57t33 64h-195v29h507v-29h-278q-32 -64 -69.5 -125t-75.5 -109l333 35q-22 31 -46 61.5t-47 57.5zM578 122l2 -28q-68 -14 -136.5 -27.5t-133 -27
t-123 -25.5t-106.5 -21l-8 31q49 9 111.5 21t134.5 26v203h-210v29h210v127h29v-127h221v-29h-221v-197z"     />

    
    <glyph glyph-name="cid11640" unicode="&#x524D;" d="M938 662v-29h-877v29h580q14 19 29 41t29 45.5t27 46t23 41.5l29 -12q-23 -39 -49.5 -82.5t-52.5 -79.5h262zM830 548h29v-563q0 -23 -7 -32t-24 -14t-53.5 -5.5t-97.5 -0.5q-1 7 -4.5 15t-7.5 15q54 -1 92.5 -1t50.5 1q13 1 17.5 5t4.5 16v564zM626 514h29v-410h-29v410
zM466 -16q0 -20 -6 -29t-22 -14q-17 -5 -50 -5.5t-87 -0.5q-2 6 -5.5 14t-7.5 16q48 -2 83 -2t46 1q12 1 16 5t4 15v180h-276v-231h-29v590h334v-539zM161 494v-135h276v135h-276zM437 193v137h-276v-137h276zM338 668q-7 15 -18.5 34.5t-25.5 40t-29.5 40.5t-31.5 38l25 11
q15 -18 31 -38t30 -40t26 -39t20 -34z"     />

    
    <glyph glyph-name="uni529B" unicode="&#x529B;" d="M897 601q-1 -4 -1 -8v-13q-9 -161 -18.5 -271t-20 -182t-23.5 -111t-29 -57q-14 -15 -29.5 -20.5t-39.5 -6.5t-68 1t-92 6q-2 7 -3.5 15t-6.5 15q56 -5 102 -6.5t64 -1.5q17 0 27.5 2.5t19.5 11.5q15 14 27 51.5t22.5 107.5t19.5 177.5t18 260.5h-402
q-5 -78 -22.5 -161.5t-59 -167t-113 -164t-184.5 -153.5q-4 5 -10 11.5t-11 10.5q111 71 181 149t110.5 158t57.5 160.5t22 156.5h-345v29h345q2 22 2 44v42v141h29v-141v-42t-2 -44h433z"     />

    
    <glyph glyph-name="cid11782" unicode="&#x529F;" d="M938 565q0 -158 -6.5 -266t-17.5 -177.5t-25 -107t-29 -53.5q-14 -15 -28.5 -20t-37.5 -6t-64.5 0.5t-86.5 5.5q-2 7 -3.5 15.5t-6.5 14.5q53 -5 96.5 -6t59.5 -1q17 0 26.5 2.5t17.5 11.5q13 13 23.5 49t19.5 103.5t17 172t15 254.5h-265q-6 -99 -22 -191.5t-51 -174
t-92.5 -148.5t-146.5 -114q-4 5 -11.5 11l-12.5 10q87 45 143.5 109.5t91 143t50.5 168.5t22 186h-194v29h195q3 57 4 113.5t1 113.5h29q0 -58 -1 -114.5t-4 -112.5h294v-21zM443 237q-52 -15 -104 -29.5t-102 -28.5t-95.5 -27t-83.5 -23l-8 29q36 10 81 22t97 26v466h-166
v29h358v-29h-163v-458l183 51z"     />

    
    <glyph glyph-name="cid11784" unicode="&#x52A0;" d="M897 695v-748h-29v70h-256v-77h-29v755h314zM868 46v620h-256v-620h256zM478 618q0 -169 -7 -283.5t-18 -187t-25 -110.5t-28 -55q-12 -14 -25 -19t-33 -6q-17 0 -46 0.5t-59 2.5q-1 8 -3 16t-6 14q37 -3 67 -4t43 -1t21 2.5t15 12.5q12 13 22 50.5t19 109.5t17 182
t16 269h-185q-4 -93 -14 -189t-30.5 -184.5t-53.5 -165.5t-82 -134q-5 3 -13 7.5t-13 6.5q48 54 80.5 129.5t52.5 162.5t30 181t14 186h-160v29h162q3 99 3 187h29q0 -44 -1 -90.5t-3 -96.5h214v-22z"     />

    
    <glyph glyph-name="cid11785" unicode="&#x52A1;" d="M823 707q-45 -69 -116 -121.5t-159 -92.5q86 -35 187.5 -56t214.5 -29q-11 -11 -18 -28q-118 11 -224 34.5t-194 63.5q-106 -45 -223 -71.5t-229 -40.5q-2 6 -5 14.5t-7 14.5q106 11 217.5 35t213.5 64q-60 30 -108 68.5t-81 86.5q-35 -33 -75 -64t-86 -58q-5 5 -11.5 11
t-12.5 9q53 30 98.5 66t83 73.5t66.5 74.5t49 71l35 -6q-17 -26 -36.5 -52.5t-42.5 -53.5h439l7 2zM334 691q-5 -5 -10.5 -11t-11.5 -11q34 -51 85 -91t117 -71q82 35 149 80.5t112 103.5h-441zM851 270q-1 -3 -1 -7q0 -3 -0.5 -6t-0.5 -5q-9 -73 -17 -124t-16.5 -85.5
t-18.5 -54.5t-22 -31q-11 -9 -23 -12.5t-32 -4.5q-19 0 -55.5 1t-77.5 4q-1 6 -3.5 14t-5.5 15q45 -5 83 -6t53 -1t23.5 1.5t15.5 7.5q9 8 17.5 26.5t16.5 50t15.5 77.5t15.5 111h-342q-22 -68 -57.5 -118t-85 -87t-114 -62.5t-144.5 -42.5q-2 6 -5.5 15t-7.5 14
q77 13 138.5 35.5t109 56t80.5 80.5t54 109h-308v29h317q13 50 21 115l31 -3q-4 -30 -9 -58t-11 -54h366z"     />

    
    <glyph glyph-name="cid11795" unicode="&#x52A8;" d="M938 564q0 -157 -5 -264.5t-14 -176.5t-21 -105t-25 -51q-12 -14 -26.5 -19t-37.5 -6q-22 0 -61.5 1t-81.5 5q-1 6 -3 14t-6 15q49 -5 90.5 -5t57.5 -1q14 0 23.5 2t17.5 11q11 12 20 47t16.5 101.5t13.5 170.5t12 254h-198q-5 -91 -17 -181t-35.5 -171.5t-61.5 -152
t-95 -122.5q-5 5 -13 10t-15 7q56 49 94 117t61.5 148t36 168t17.5 177h-171v29h172q3 59 4 116t1 111h29q-1 -55 -2 -112t-3 -115h226v-22zM468 57q-5 18 -12 39l-15 45q-115 -22 -182 -35t-103 -20.5t-48.5 -11.5t-19.5 -8v1q-2 6 -5 16.5t-6 15.5q10 2 20.5 23t22.5 50
q6 13 17.5 43.5t25 71t27 88t24.5 95.5h-154v29h437v-29h-253q-22 -94 -53 -189t-66 -171l307 58q-16 46 -35 94.5t-36 91.5l26 7q15 -36 31 -76t31 -79t27.5 -74.5t20.5 -62.5zM478 714h-380v29h380v-29z"     />

    
    <glyph glyph-name="cid11796" unicode="&#x52A9;" d="M921 570q0 -162 -4 -272t-11.5 -180.5t-18 -107t-22.5 -51.5q-11 -14 -25 -19t-35 -6q-23 -1 -61.5 0.5t-78.5 4.5q-2 8 -3.5 15.5t-6.5 13.5q48 -4 89 -4t56 -1q14 0 23 2t16 11q10 12 18.5 47t14.5 103.5t10.5 175t8.5 261.5h-206q-5 -98 -20 -191t-46.5 -175.5
t-84 -151.5t-133.5 -119q-4 5 -12 11t-15 10q79 46 131 113t83.5 147t46.5 170.5t21 185.5h-195v29h197q3 60 3.5 120t0.5 119h29q0 -60 -0.5 -119.5t-3.5 -119.5h234v-22zM490 126q-60 -13 -120 -26.5t-116.5 -26.5t-108 -25t-94.5 -21l-7 30l74 16v702h303v-635l67 15z
M392 523h-245v-190h245v190zM147 746v-194h245v194h-245zM147 79q55 12 117 25.5t128 28.5v171h-245v-225z"     />

    
    <glyph glyph-name="cid52" unicode="&#x53;" d="M295 -13q-81 0 -140.5 31t-101.5 79l25 26q40 -47 95.5 -74t121.5 -27q88 0 139 42.5t51 111.5q0 36 -10.5 61t-29 43t-43 31t-51.5 25l-111 50q-24 10 -50 24.5t-47.5 35t-36 49.5t-14.5 69q0 39 15.5 71.5t43 55.5t65.5 35.5t82 12.5q66 0 116 -25.5t82 -60.5l-23 -25
q-32 34 -75.5 55t-99.5 21q-76 0 -122 -37t-46 -99q0 -34 12.5 -58t31.5 -41t41.5 -28t41.5 -20l111 -50q31 -14 59 -30t49 -38t33.5 -52t12.5 -72t-16 -77t-46 -60.5t-72 -40t-93 -14.5z"  horiz-adv-x="569"   />

    
    <glyph glyph-name="cid11978" unicode="&#x5316;" d="M846 -22q23 0 36.5 10t21.5 35t12 68.5t7 109.5q7 -5 14 -9t15 -6q-3 -68 -7.5 -113.5t-16 -73t-31.5 -39t-54 -11.5h-208q-30 0 -49.5 4t-31 14.5t-16.5 29t-5 48.5v245q-41 -29 -82 -53.5t-83 -47.5l-10.5 10.5t-11.5 10.5q47 25 94 53.5t93 60.5v485h29v-464
q97 71 182 153t145 172l30 -17q-66 -96 -159 -182.5t-198 -160.5v-267q0 -39 14 -52t56 -13h214zM369 819q-22 -54 -48.5 -104.5t-56.5 -98.5v-688h-29v643q-36 -55 -75.5 -102.5t-80.5 -87.5q-4 5 -10.5 12t-11.5 11q42 39 82.5 87t77 102t68.5 113.5t57 120.5z"     />

    
    <glyph glyph-name="cid11980" unicode="&#x5317;" d="M869 -15q21 0 33 10t19.5 34.5t10.5 66t6 105.5q14 -13 29 -16q-2 -65 -6 -109t-14.5 -70.5t-29.5 -38t-50 -11.5h-187q-27 0 -45 4t-29 14t-15.5 28t-4.5 45v763h30v-366q40 24 81.5 50.5t80 53.5t72 53.5t57.5 50.5l25 -23q-30 -26 -67 -53.5t-78.5 -55.5t-85 -54.5
t-85.5 -51.5v-368q0 -37 12 -49t50 -12h191zM350 810h29v-874h-29v246q-78 -33 -152.5 -65t-134.5 -57l-16 26q58 22 138 55.5t165 68.5v320h-277v30h277v250z"     />

    
    <glyph glyph-name="cid12051" unicode="&#x533A;" d="M774 85q-40 54 -99.5 120.5t-129.5 138.5q-134 -150 -287 -258q-4 4 -12 11t-15 11q78 51 152 116t141 140q-66 66 -134.5 130t-134.5 119l23 17q65 -54 133 -117t133 -127q57 67 107.5 138.5t92.5 146.5l28 -10q-90 -157 -208 -295q72 -72 133.5 -139.5t103.5 -121.5z
M946 -10v-29h-834v804h810v-29h-780v-746h804z"     />

    
    <glyph glyph-name="uni5341" unicode="&#x5341;" d="M944 414h-429v-484h-29v484h-424v29h424v386h29v-386h429v-29z"     />

    
    <glyph glyph-name="cid12144" unicode="&#x5373;" d="M898 194q0 -21 -6.5 -30.5t-22.5 -14.5q-17 -5 -52.5 -5.5t-96.5 0.5l-4.5 13.5t-7.5 15.5q52 -2 90 -2t49 1q13 1 17.5 5.5t4.5 15.5v547h-244v-812h-29v841h302v-575zM353 250q20 -31 41 -65t40 -68t35 -64.5t27 -54.5l-25 -15q-11 23 -25.5 53t-32.5 62
q-102 -39 -161 -62.5t-90.5 -36.5t-42.5 -19t-17 -11q-2 5 -6.5 14t-9.5 15q10 5 24 18t14 41v718h346v-448h-317v-297l248 89q-17 31 -35.5 61.5t-36.5 58.5zM441 355v187h-288v-187h288zM153 747v-176h288v176h-288z"     />

    
    <glyph glyph-name="cid12268" unicode="&#x53C2;" d="M645 475q28 -35 64.5 -68t77.5 -61.5t84 -52t84 -38.5q-5 -4 -11.5 -11t-10.5 -13q-42 18 -87.5 44t-88.5 58t-81.5 68t-66.5 74h-213q-62 -85 -142.5 -148t-174.5 -108q-3 4 -10.5 11.5t-13.5 12.5q92 40 169 98t136 134h-301v29h322q39 55 67 123l30 -8
q-14 -31 -29 -60t-32 -55h525v-29h-297zM589 395q-28 -24 -64 -47t-76.5 -43.5t-82.5 -37.5t-81 -30q-5 5 -10.5 11.5t-11.5 10.5q39 12 81 28.5t81.5 35.5t75 40.5t62.5 43.5zM684 274q-36 -30 -84 -57t-102.5 -50t-112.5 -42.5t-114 -32.5q-4 5 -9.5 11.5t-10.5 11.5
q55 13 113 31t111.5 40.5t100.5 48t82 53.5zM817 158q-43 -45 -107.5 -81.5t-143 -66t-169 -50.5t-185.5 -34l-7 14t-9 13q95 12 184 32t166.5 47.5t140 62.5t104.5 78zM856 575q-14 16 -33 34t-42 36q-132 -7 -226 -11.5t-157.5 -8t-102.5 -6t-60.5 -4.5t-31.5 -4t-16 -4
q-1 6 -4 17t-5 17q12 1 29 9t37 20q11 7 33.5 22.5t51 36.5t60 46.5t58.5 52.5l29 -17q-56 -49 -110.5 -90t-109.5 -73l494 24q-36 28 -74.5 54.5t-76.5 49.5l22 18q36 -21 73 -46t71.5 -51t64 -52.5t49.5 -48.5z"     />

    
    <glyph glyph-name="cid12282" unicode="&#x53CA;" d="M901 518q-35 -137 -100.5 -237.5t-152.5 -172.5q63 -51 138 -87t165 -59q-5 -5 -10.5 -12t-9.5 -14q-91 25 -167 63.5t-139 89.5q-76 -57 -161.5 -95t-174.5 -61q-2 6 -7 14t-10 13q88 20 171.5 56t158.5 93q-102 89 -170.5 211.5t-113.5 275.5q-2 -74 -10.5 -153
t-34.5 -161.5t-74.5 -166t-129.5 -164.5q-3 5 -10 11.5t-12 10.5q86 85 134.5 173.5t72.5 174.5t29.5 167.5t5.5 154.5v101h-193v29h599q-7 -29 -15.5 -61.5t-17.5 -65t-17.5 -63.5t-16.5 -58h250l5 2zM318 693q43 -180 117 -323t191 -243q81 66 143.5 157t96.5 212h-276
q8 24 17 54t18 63t17.5 66.5t16.5 64.5h-341v-51z"     />

    
    <glyph glyph-name="cid12285" unicode="&#x53CC;" d="M904 744q-24 -167 -73.5 -299.5t-114.5 -235.5q45 -86 105 -151t138 -107q-6 -5 -12.5 -12t-11.5 -14q-75 45 -134 109t-104 148q-60 -86 -128 -148.5t-142 -104.5q-3 5 -9.5 12t-11.5 12q75 41 145 105t131 154q-53 106 -86.5 233t-55.5 275h-44v29h383l6 2zM570 720
q20 -138 51 -258.5t79 -220.5q60 95 103.5 214t67.5 265h-301zM426 55q-19 42 -48 94t-64 109q-50 -112 -111.5 -193t-130.5 -135q-4 5 -10.5 12t-12.5 11q71 52 133.5 136t113.5 199q-46 73 -97 146.5t-102 137.5l24 14q48 -61 96 -129t93 -137q34 86 59 185.5t39 214.5
h-335v29h342l6 2l19 -6q-16 -134 -44.5 -247t-67.5 -207q39 -63 71 -119t54 -101z"     />

    
    <glyph glyph-name="cid12292" unicode="&#x53D1;" d="M805 418q-31 -97 -83 -172.5t-118 -133.5q144 -117 346 -162q-5 -5 -10.5 -12t-8.5 -12q-202 48 -348 167q-72 -60 -154.5 -100.5t-168.5 -65.5q-2 5 -7 11.5t-9 11.5q84 23 165 62.5t153 99.5q-121 106 -189 258q-53 -109 -127.5 -198.5t-180.5 -160.5q-4 5 -10.5 10
t-12.5 9q142 95 230.5 227.5t138.5 299.5h-148q-54 0 -77 -3t-31 -8q-2 5 -5 16.5t-5 16.5q8 2 15 12t15 25q4 8 12.5 26.5t18 43t18.5 53t15 56.5l34 -9q-16 -56 -36 -107.5t-40 -91.5h222q17 57 28 118t19 126l33 -5q-9 -63 -20.5 -123t-27.5 -116h464v-30h-472
q-10 -34 -21 -67t-24 -64h382l6 2zM391 397q67 -159 192 -268q60 53 107 119.5t77 148.5h-376zM817 637q-12 15 -28 34t-35 39.5t-38.5 41t-37.5 38.5l23 15q18 -18 37.5 -38t38 -40t35 -38.5t27.5 -32.5z"     />

    
    <glyph glyph-name="cid12339" unicode="&#x53EF;" d="M940 726h-130v-733q0 -27 -8.5 -39.5t-30.5 -17.5q-23 -5 -71.5 -5h-120.5q-2 7 -6 16.5t-8 17.5q33 -1 63.5 -1.5t55.5 -0.5h43t27 1q16 1 21.5 7t5.5 22v733h-718v29h877v-29zM205 186v-83h-29v440h392v-357h-363zM205 514v-299h334v299h-334z"     />

    
    <glyph glyph-name="cid12351" unicode="&#x53F7;" d="M329 400q-12 -37 -25.5 -76.5t-27.5 -72.5h523q-1 -3 -1 -7q0 -3 -0.5 -6t-0.5 -5q-11 -68 -21.5 -117t-21.5 -83t-23 -54.5t-26 -32.5q-12 -10 -26.5 -13t-37.5 -4q-22 0 -67.5 1t-99.5 6q-1 6 -2.5 14t-6.5 15q56 -6 104 -7.5t67 -1.5q20 0 30 1.5t18 7.5
q12 9 22.5 27.5t20.5 49t19.5 75t18.5 105.5h-516v1h-18q8 18 17 39.5t17.5 45t16.5 47t16 45.5h-225v29h852v-29h-596zM802 547h-604v236h604v-236zM773 754h-546v-178h546v178z"     />

    
    <glyph glyph-name="cid12352" unicode="&#x53F8;" d="M871 1q0 -26 -8 -38t-28 -17q-21 -5 -66.5 -5h-112.5q-3 15 -13 33q62 -2 110.5 -1.5t64.5 1.5q15 1 20 6.5t5 19.5v732h-745v29h773v-760zM714 563h-612v29h612v-29zM628 121h-422v-75h-29v375h451v-300zM206 392v-242h393v242h-393z"     />

    
    <glyph glyph-name="cid53" unicode="&#x54;" d="M267 693h-234v33h507v-33h-234v-693h-39v693z"  horiz-adv-x="573"   />

    
    <glyph glyph-name="cid12374" unicode="&#x5408;" d="M550 818q-8 -11 -15 -22t-15 -22q78 -96 188 -171t250 -141q-6 -5 -12.5 -12t-10.5 -13q-137 67 -244 143t-188 173q-39 -50 -88 -96t-104 -87.5t-115.5 -76t-123.5 -59.5q-4 5 -9.5 11t-11.5 10q73 29 142.5 69.5t131 89t112.5 103.5t88 113zM754 499v-29h-508v29h508z
M207 316h594v-381h-29v65h-536v-69h-29v385zM236 287v-258h536v258h-536z"     />

    
    <glyph glyph-name="cid12378" unicode="&#x540C;" d="M902 -18q0 -23 -8 -34t-25 -15q-17 -5 -54 -5.5t-103 0.5q-2 6 -5.5 13.5t-8.5 14.5q56 -2 96.5 -1.5t52.5 1.5q14 1 20 6t6 19v764h-744v-819h-29v848h802v-792zM763 577h-517v29h517v-29zM330 143v-80h-29v380h398v-300h-369zM330 414v-242h340v242h-340z"     />

    
    <glyph glyph-name="cid12380" unicode="&#x540D;" d="M840 -70h-29v61h-516v-62h-29v354q-48 -17 -93.5 -30.5t-90.5 -24.5q-2 6 -6.5 14.5t-9.5 13.5q98 20 203.5 59.5t205.5 96.5q-18 16 -40 34.5t-46 37.5t-49 37.5t-49 34.5l22 17q24 -16 50.5 -34.5t51 -38t47 -38t39.5 -34.5q90 55 164.5 122.5t122.5 148.5h-423
q-49 -52 -112 -100.5t-139 -89.5q-4 5 -10 10.5t-11 9.5q60 31 112 68.5t95 77.5t76 80t55 76l35 -6q-15 -23 -33 -47.5t-41 -49.5h417l6 2l17 -13q-36 -67 -88 -125.5t-114.5 -108.5t-133.5 -91.5t-144 -73.5h488v-388zM811 20v269h-516v-269h516z"     />

    
    <glyph glyph-name="cid12395" unicode="&#x5417;" d="M930 387v-8q0 -3 -0.5 -6.5t-0.5 -5.5q-9 -104 -18.5 -176t-20 -120.5t-22 -76t-24.5 -40.5q-11 -11 -24 -14.5t-34 -4.5q-17 0 -49.5 0.5t-69.5 3.5q-1 7 -3 15t-6 15q41 -5 75 -5.5t48 -0.5q14 -1 23 1t16 9q12 11 22 36.5t20 71t18.5 113.5t17.5 164h-451v1h-8
q4 27 8.5 63t8.5 75t7.5 78.5t6.5 72.5l27 -3q-2 -30 -5 -64t-6.5 -68t-7 -66.5t-7.5 -59.5h293q6 41 11.5 88.5t10.5 94t10 89t8 75.5h-382v29h387l6 3l20 -4q-3 -36 -7.5 -82t-10.5 -96t-12.5 -101t-12.5 -96h138zM803 163h-428v29h428v-29zM312 199h-198v-103h-29v631
h227v-528zM114 698v-470h169v470h-169z"     />

    
    <glyph glyph-name="cid12580" unicode="&#x548C;" d="M889 737v-760h-29v79h-286v-86h-29v767h344zM860 85v623h-286v-623h286zM299 537h204v-29h-204v-34q8 -9 23 -25.5t33 -37.5t37.5 -44.5t37 -45t31.5 -38.5t21 -26l-23 -24q-10 14 -29.5 40t-43 55t-46.5 58t-41 49v-503h-29v518q-21 -50 -47.5 -100t-55 -96.5
t-58.5 -86.5t-58 -68q-3 6 -9.5 13t-11.5 12q31 30 64 74t64 95t58.5 106.5t46.5 108.5h-206v29h213v204q-48 -9 -95.5 -16t-92.5 -12q-2 6 -4.5 12.5t-5.5 12.5q51 7 106 15.5t107.5 18.5t98.5 22t78 25l23 -23q-36 -15 -84 -27t-102 -23v-209z"     />

    
    <glyph glyph-name="cid12595" unicode="&#x5496;" d="M915 708v-736h-29v83h-176v-90h-29v743h234zM886 84v595h-176v-595h176zM628 599q0 -169 -4.5 -281.5t-12.5 -183t-18.5 -106.5t-22.5 -52q-18 -24 -51 -25q-15 0 -38 0.5t-46 2.5q0 16 -8 30q29 -2 53 -3t35 -1t17 2.5t13 11.5q9 12 16.5 48t14 105.5t12 178t10.5 266.5
h-118q-3 -106 -12 -203.5t-29.5 -182t-56 -155t-91.5 -123.5q-5 5 -12.5 10t-14.5 8q55 49 90 117.5t55.5 151t29.5 178t12 199.5h-109v29h110q2 51 2 102v104h29q0 -53 -0.5 -104t-1.5 -102h147v-22zM120 195v-111h-29v666h204v-555h-175zM120 721v-497h146v497h-146z"     />

    
    <glyph glyph-name="cid54" unicode="&#x55;" d="M346 -13q-44 0 -87 13t-76.5 45t-54 87.5t-20.5 139.5v454h37v-446q0 -75 16.5 -124.5t44.5 -79t64.5 -42t75.5 -12.5q40 0 77 12.5t65.5 42t45.5 79t17 124.5v446h36v-454q0 -84 -21 -139.5t-55 -87.5t-77.5 -45t-87.5 -13z"  horiz-adv-x="694"   />

    
    <glyph glyph-name="cid12912" unicode="&#x5561;" d="M952 193h-206v-260h-29v896h29v-181h197v-29h-197v-181h188v-29h-188v-187h206v-29zM580 215h2v-29h-2v-253h-29v253h-212v29h212v194h-173v29h173v181h-180v29h180v181h29v-614zM293 199h-179v-103h-29v631h208v-528zM114 698v-470h150v470h-150z"     />

    
    <glyph glyph-name="cid55" unicode="&#x56;" d="M7 726h39l140 -434q11 -34 20.5 -64t18.5 -59t18.5 -59t21.5 -63h4q12 33 21.5 63t19 59t19 59t20.5 64l139 434h38l-240 -726h-38z"  horiz-adv-x="532"   />

    
    <glyph glyph-name="cid13207" unicode="&#x5609;" d="M932 750v-29h-419v-83h354v-29h-732v29h349v83h-412v29h412v80h29v-80h419zM690 359q-12 -21 -26.5 -43t-28.5 -41h289v-29h-851v29h531q17 23 32.5 50t26.5 47h-330q19 -18 34.5 -40t22.5 -39l-27 -15q-8 19 -23.5 43t-34.5 42l17 9h-137v166h641v-166h-160zM214 401
h583v108h-583v-108zM555 181h329v-246h-29v36h-271v-41h-29v251zM584 152v-152h271v152h-271zM476 151q-1 -3 -1 -7q0 -3 -0.5 -6t-0.5 -5q-9 -89 -17.5 -129.5t-23.5 -53.5q-9 -8 -19 -11t-28 -3q-15 0 -44 0.5t-61 3.5q-1 6 -3 13.5t-6 14.5q35 -4 66 -4.5t42 -0.5
q12 0 19 1t12 6q10 10 17.5 44t15.5 108h-179q-22 -70 -67 -117.5t-129 -75.5q-3 5 -9 11.5t-11 9.5q79 26 122 68.5t63 103.5h-152v29h160q5 18 8 37.5t5 40.5h30q-2 -21 -5 -40.5t-8 -37.5h204z"     />

    
    <glyph glyph-name="cid13372" unicode="&#x5668;" d="M629 379q29 -28 67.5 -53.5t81.5 -47.5t89 -39t90 -27q-6 -5 -11.5 -12t-9.5 -13q-20 6 -41 13t-42 16v-280h-29v28h-239v-34h-29v301h259q-65 29 -123.5 67t-98.5 81h-204q-38 -40 -86 -77.5t-106 -70.5h241v-295h-29v28h-227v-34h-29v279q-22 -11 -45 -21.5t-47 -18.5
q-3 5 -9 10.5t-11 10.5q98 35 175 84t134 105h-291v29h319q29 32 49.5 63t34.5 61l33 -5q-15 -30 -34 -60t-45 -59h526v-29h-313zM409 202h-227v-209h227v209zM824 -7v209h-239v-209h239zM428 531h-291v251h291v-251zM399 753h-233v-193h233v193zM767 410q-12 10 -29 20.5
t-36.5 20.5t-40.5 19t-40 16l18 21q19 -6 40 -15t40.5 -18.5t36.5 -19.5t29 -19zM861 531h-300v251h300v-251zM832 753h-242v-193h242v193z"     />

    
    <glyph glyph-name="cid13593" unicode="&#x56E2;" d="M904 781v-852h-29v48h-750v-48h-29v852h808zM875 6v746h-750v-746h750zM794 522h-189v-382q0 -19 -6 -27.5t-20 -12.5q-14 -5 -42.5 -5.5t-79.5 -0.5q-2 6 -5 13.5t-7 14.5q42 -1 73 -0.5t40 0.5q11 1 14.5 4t3.5 13v338q-33 -44 -73.5 -86t-85 -80t-91.5 -72t-94 -62
q-4 5 -10 10.5t-12 9.5q50 29 101 65.5t98.5 78.5t88.5 88t71 93h-354v29h361v147h29v-147h189v-29z"     />

    
    <glyph glyph-name="cid13704" unicode="&#x5728;" d="M933 -19v-29h-610v29h288v339h-247v29h247v220h29v-220h254v-29h-254v-339h293zM369 630q-26 -57 -56.5 -109.5t-67.5 -101.5v-485h-29v446q-32 -38 -67.5 -72.5t-75.5 -64.5q-3 4 -9 10.5t-11 10.5q94 70 164 165t120 201h-267v29h280q20 42 35 85t27 86l30 -8
q-24 -81 -60 -163h548v-29h-561z"     />

    
    <glyph glyph-name="cid13713" unicode="&#x5730;" d="M843 -17q23 0 37.5 7t22.5 25t12 49t7 79q14 -11 29 -14q-3 -50 -8 -83.5t-16.5 -53.5t-32.5 -28.5t-55 -8.5h-280q-35 0 -58.5 4t-37.5 14.5t-20 29.5t-6 49v373l-105 -44l-12 27l117 49v284h29v-272l187 78v284h29v-271l186 77l13 13l6 6l21 -9l-2 -8q0 -69 -1 -135.5
t-2.5 -121t-4 -93t-5.5 -51.5q-6 -27 -21 -37.5t-35 -11.5q-19 -1 -43 -1h-42q-2 8 -4 15.5t-6 14.5q12 -1 25 -1.5t25 -0.5h21.5h14.5q14 0 23.5 6t14.5 27q3 12 5.5 46t3.5 82.5t1.5 108t0.5 122.5l-195 -81v-384h-29v373l-187 -79v-387q0 -38 17 -52.5t71 -14.5h289z
M220 206q33 14 67 28.5t68 29.5l6 -27q-81 -35 -160.5 -69.5t-142.5 -60.5l-12 29q30 11 66.5 26t78.5 33v357h-141v29h141v240h29v-240h134v-29h-134v-346z"     />

    
    <glyph glyph-name="cid13726" unicode="&#x573A;" d="M922 497q-1 -4 -1 -8q-1 -3 -1 -7v-6q-9 -135 -17 -226.5t-17.5 -151t-20 -91t-23.5 -46.5q-11 -12 -23.5 -16.5t-31.5 -5.5q-16 0 -42 0.5t-55 2.5q0 16 -8 29q33 -3 60.5 -3t40.5 -1q12 0 19.5 2t13.5 10q12 12 22 43t19 88.5t17.5 145t16.5 212.5h-101
q-59 -188 -157.5 -321.5t-241.5 -222.5q-4 5 -11.5 11t-13.5 11q145 82 241.5 213t152.5 309h-111q-37 -101 -101.5 -180t-142.5 -134q-2 4 -10 10.5t-14 10.5q78 51 139 125t97 168h-133q-39 0 -58.5 -2t-25.5 -7q-2 6 -6 15.5t-8 14.5q15 2 41 15t55 33q15 9 44.5 30
t67 50t79 63.5t80.5 71.5h-378v29h408l8 4l28 -18q-98 -84 -185 -151.5t-172 -118.5h460zM348 221l5 -28l-297 -116l-11 30q31 11 69.5 25.5t81.5 30.5v389h-136v29h136v240h29v-240h122v-29h-122v-378z"     />

    
    <glyph glyph-name="cid13847" unicode="&#x578B;" d="M952 -4v-29h-904v29h449v174h-342v29h342v144h29v-144h318v-29h-318v-174h426zM247 557q-3 -33 -12 -67.5t-25.5 -68t-42 -65.5t-63.5 -59q-4 5 -10 11.5t-11 10.5q36 25 60.5 54.5t40 60t23.5 62t11 61.5h-139v29h141v22v148h-109v29h446v-29h-115v-170h135v-29h-135
v-236h-29v236h-166zM249 608v-22h164v170h-164v-148zM688 443h-29v331h29v-331zM878 363q0 -21 -6 -30t-23 -14t-52 -5.5t-90 -0.5q-3 15 -13 31q52 -2 87.5 -1.5t47.5 1.5q13 2 16.5 5t3.5 14v467h29v-467z"     />

    
    <glyph glyph-name="cid14023" unicode="&#x57FA;" d="M708 311q21 -32 49 -61t60 -54.5t67.5 -45.5t71.5 -33l-11 -11t-10 -12q-37 15 -74 38t-71 51t-62.5 60.5t-49.5 67.5h-350q-22 -36 -52 -70.5t-64.5 -65t-71 -55.5t-70.5 -42q-9 14 -22 24q34 15 68.5 37t67 49t61 58.5t50.5 64.5h-236v29h207v343h-167v29h167v118h29
v-118h414v118h29v-118h165v-29h-165v-343h204v-29h-234zM295 468h414v95h-414v-95zM295 683v-91h414v91h-414zM295 340h414v99h-414v-99zM513 -15h363v-29h-750v29h358v148h-233v29h233v106h29v-106h237v-29h-237v-148z"     />

    
    <glyph glyph-name="cid14255" unicode="&#x5883;" d="M837 -32q14 0 28 1t21 3q17 5 23 24q2 12 3 36.5t2 58.5q12 -11 28 -14q-1 -32 -3 -61t-6 -40q-7 -20 -32 -27q-11 -3 -29 -4.5t-32 -1.5h-72q-15 0 -32 2t-28 8q-6 3 -9.5 6.5t-6 10.5t-3.5 18.5t-1 28.5v175h-109q-6 -59 -20.5 -103t-43 -75.5t-73 -52.5t-110.5 -36
q-2 6 -8 13.5t-11 12.5q64 13 107 32t70 47.5t40.5 68t18.5 93.5h-125v268h433v-268h-140v-185q0 -15 2.5 -23.5t10.5 -11.5q12 -4 38 -4h69zM453 342h375v89h-375v-89zM453 221h375v92h-375v-92zM337 187q-75 -29 -148 -58t-132 -52l-11 31q29 9 63.5 22t73.5 28v394h-123
v29h123v240h29v-240h109v-29h-109v-383l119 45zM916 532h-548v29h335q14 28 29.5 65t24.5 65l31 -12q-13 -29 -27 -60.5t-27 -57.5h182v-29zM526 574q-5 23 -16.5 54.5t-23.5 59.5l28 7q11 -27 23.5 -58t17.5 -53zM889 714h-490v29h235q-7 20 -16.5 42.5t-20.5 42.5l26 6
q12 -21 24 -46.5t18 -44.5h224v-29z"     />

    
    <glyph glyph-name="cid14319" unicode="&#x58A8;" d="M953 -23v-29h-905v29h436v115h-329v29h329v75h29v-75h331v-29h-331v-115h440zM88 176q35 25 64 63.5t48 80.5l26 -7q-20 -42 -49 -84.5t-66 -71.5zM390 182q-5 24 -16 57.5t-25 62.5l26 7q15 -29 26 -62t16 -57zM630 184q-11 25 -33.5 58t-46.5 60l24 11q25 -26 47.5 -58
t34.5 -56zM779 321q19 -14 39.5 -31t39.5 -34.5t35 -34t27 -30.5l-22 -19q-11 14 -27.5 31t-35.5 35t-39.5 35.5t-39.5 32.5zM928 337h-856v29h412v91h-336v29h336v81h-325v224h680v-224h-326v-81h342v-29h-342v-91h415v-29zM810 762h-297v-166h297v166zM484 596v166h-296
v-166h296zM305 746q21 -30 38.5 -66t24.5 -62l-26 -12q-7 26 -24.5 63t-38.5 67zM619 619q8 13 17 29t17.5 33.5t16.5 34t13 30.5l27 -13q-16 -33 -34 -67.5t-35 -58.5z"     />

    
    <glyph glyph-name="cid14485" unicode="&#x590D;" d="M791 230q-42 -57 -105 -101.5t-141 -78.5q90 -34 193 -55t213 -31q-6 -6 -11 -14t-9 -15q-114 11 -222.5 36t-203.5 63q-105 -42 -221 -67t-227 -38q-1 8 -5 16t-9 14q105 10 215 32t210 59q-62 29 -113 64t-89 77q-33 -32 -67.5 -59.5t-69.5 -49.5q-3 4 -10.5 10.5
t-12.5 11.5q69 41 131.5 99.5t105.5 126.5h-114v274h579v-274h-431q-14 -22 -29.5 -44t-32.5 -42h449l7 2zM258 483h521v92h-521v-92zM258 359h521v95h-521v-95zM286 213q39 -45 95.5 -82t125.5 -66q71 29 130 66t101 84h-450zM234 694q-35 -45 -75.5 -84t-81.5 -71
q-2 5 -7.5 14t-10.5 14q33 24 66 53.5t63 63t56 71t45 76.5l28 -9q-13 -26 -28 -51t-33 -48h627v-29h-649z"     />

    
    <glyph glyph-name="cid14506" unicode="&#x5916;" d="M673 525q38 -24 78 -53t77.5 -59t69 -58.5t53.5 -52.5l-20 -23q-21 23 -51.5 51.5t-66.5 57.5t-75 58t-76 54v-569h-29v900h29v-316zM483 672l19 -8q-22 -144 -63 -259t-96.5 -204.5t-123.5 -155t-144 -110.5q-9 14 -23 23q91 51 168.5 131t136.5 195q-16 17 -38.5 36
t-48.5 38.5t-53.5 38.5t-53.5 34l18 18q25 -14 51.5 -31t51.5 -35t46.5 -36.5t38.5 -34.5q33 70 58 151.5t40 177.5h-231q-31 -83 -69 -153.5t-85 -125.5q-5 4 -12.5 9.5t-13.5 9.5q73 81 124 198.5t82 251.5l29 -6q-10 -41 -20.5 -79.5t-23.5 -75.5h229z"     />

    
    <glyph glyph-name="cid14516" unicode="&#x591A;" d="M933 389q-52 -108 -141 -187t-199.5 -134.5t-234.5 -89t-246 -50.5q-2 7 -6 15.5t-8 13.5q66 8 133 21.5t133 32.5t129 43.5t120 56.5q-13 15 -30 31.5t-36 33t-39 32.5t-39 30l25 14q38 -28 79 -62t68 -63q79 48 142.5 108t105.5 137h-319q-63 -57 -145 -111t-185 -97
q-8 12 -22 22q75 30 140 67t118 77.5t93.5 81.5t67.5 80l35 -7q-14 -21 -32.5 -41.5t-38.5 -42.5h307l6 2zM768 725q-47 -81 -123 -148t-166 -119t-186 -89t-183 -57q-2 7 -7 16t-10 14q89 18 185.5 54t187.5 89q-28 25 -69 52.5t-80 47.5l21 20q42 -21 85 -49.5t71 -54.5
q70 44 128.5 95.5t98.5 111.5h-315q-50 -47 -112.5 -90.5t-137.5 -79.5q-4 5 -10.5 11t-11.5 9q60 28 112.5 62t95.5 70t76.5 72t56.5 69l36 -7q-16 -21 -34.5 -43t-40.5 -44h307l7 2z"     />

    
    <glyph glyph-name="uni5927" unicode="&#x5927;" d="M534 496q27 -93 67 -176.5t92 -153t116 -123t138 -86.5q-6 -5 -11.5 -12.5t-10.5 -13.5q-76 36 -140.5 92.5t-118 129.5t-94 159.5t-68.5 183.5h-10q-15 -80 -44 -161.5t-78.5 -156.5t-123 -139t-176.5 -109q-4 5 -11 11.5t-12 10.5q101 43 173 104.5t120.5 133.5
t77.5 150.5t45 155.5h-397v29h401q16 90 19 168.5t3 135.5h29q-1 -58 -4 -136.5t-17 -167.5h437v-29h-402z"     />

    
    <glyph glyph-name="cid14619" unicode="&#x5957;" d="M301 523v-87h441v-29h-441v-88h441v-29h-441v-92h637v-29h-550q-41 -49 -83 -91.5t-85 -76.5l526 33q-23 23 -47 46t-47 43l23 15q25 -22 52.5 -47.5t53 -51t48 -49t38.5 -41.5l-23 -19q-14 16 -32.5 36.5t-41.5 42.5q-135 -9 -230.5 -15t-160.5 -11t-104.5 -8t-62 -5.5
t-32 -4.5t-15.5 -4q-2 6 -4.5 17t-6.5 18q12 1 25.5 9t29.5 22q7 7 22.5 20.5t34.5 32.5t40 41.5t41 47.5h-283v29h208v344q-44 -32 -93.5 -61t-107.5 -53q-4 5 -9.5 11.5t-10.5 10.5q109 45 191.5 106.5t140.5 129.5h-307v29h331q23 29 40.5 58t28.5 58l35 -6
q-13 -27 -29.5 -54.5t-37.5 -55.5h483v-29h-305q31 -35 70.5 -68.5t83.5 -63.5t89.5 -54t87.5 -40q-5 -4 -11.5 -11t-10.5 -13q-46 19 -96.5 48.5t-99.5 64.5v-26h-434zM422 686q-29 -35 -63 -68.5t-74 -65.5h447q-42 31 -79.5 65t-66.5 69h-164z"     />

    
    <glyph glyph-name="cid14697" unicode="&#x597D;" d="M951 364h-243v-386q0 -20 -7 -29.5t-24 -14.5q-17 -4 -49 -5t-90 0q-2 6 -6.5 13.5t-8.5 14.5q52 -1 88 -1t47 1q12 1 16.5 5t4.5 15v387h-253v29h253v136q22 18 46 40t47 46t44 49.5t38 49.5h-378v29h400l6 3l24 -16q-19 -29 -42.5 -58.5t-50 -57.5t-53.5 -53.5
t-52 -45.5v-122h243v-29zM407 614q-14 -140 -42.5 -248.5t-72.5 -191.5q39 -31 71 -61t53 -57l-23 -23q-20 25 -50 54t-67 60q-44 -77 -99 -129t-120 -87q-3 6 -9.5 12.5l-11.5 11.5q63 32 117.5 84t98.5 127q-39 32 -82 61t-85 53q20 59 40.5 140t40.5 169h-117v29h123
q11 57 20.5 111t16.5 102l29 -2q-7 -48 -16.5 -101.5t-21.5 -109.5h181l7 2zM194 589q-17 -82 -37 -159t-37 -137q38 -22 75 -47.5t72 -51.5q40 76 67 173.5t40 221.5h-180z"     />

    
    <glyph glyph-name="cid15798" unicode="&#x5B57;" d="M922 258h-407v-281q0 -20 -6.5 -28.5t-23.5 -13.5t-51.5 -5.5t-98.5 -0.5q-2 6 -5.5 13.5t-8.5 13.5q56 -1 94 -1t49 1q13 1 17.5 5t4.5 15v282h-411v29h411v72q28 13 59 31t61 38t57.5 41.5t50.5 42.5h-481v29h511l6 2l22 -15q-25 -26 -56 -51.5t-65 -49t-69 -45
t-67 -37.5v-58h407v-29zM123 534h-29v181h414q-11 26 -28.5 55.5t-36.5 55.5l25 11q23 -29 43 -62.5t30 -59.5h366v-181h-29v152h-755v-152z"     />

    
    <glyph glyph-name="cid15800" unicode="&#x5B58;" d="M953 227h-299v-246q0 -21 -7 -30.5t-25 -14.5q-19 -5 -59.5 -5h-109.5q-2 7 -5.5 13.5t-8.5 14.5q63 -2 106 -2t57 2q14 1 18.5 5.5t4.5 15.5v247h-304v29h304v96q26 13 53 29.5t53.5 35t50.5 38t43 38.5h-411v29h439l6 2l21 -14q-21 -24 -48 -48t-57 -46.5t-61 -42
t-60 -34.5v-83h299v-29zM376 669q-28 -66 -62.5 -128t-76.5 -119v-491h-29v453q-64 -79 -145 -142q-3 5 -9 11.5t-11 10.5q102 77 176.5 182t125.5 223h-275v29h287q14 32 24.5 65t20.5 66l30 -8q-9 -31 -20 -61.5t-23 -61.5h541v-29h-554z"     />

    
    <glyph glyph-name="cid15888" unicode="&#x5B83;" d="M902 687v-181h-29v152h-750v-152h-29v181h808zM747 -16q30 0 48.5 6.5t29 25t16 50.5t8.5 83q14 -9 30 -14q-4 -53 -10 -87.5t-20.5 -55t-39.5 -29t-66 -8.5h-352q-42 0 -70 3.5t-45 14t-24 29t-7 48.5v493h29v-265q64 19 130.5 40.5t128 44t115 46t91.5 45.5l30 -22
q-46 -24 -104 -47.5t-123 -46.5t-133.5 -44.5t-134.5 -40.5v-204q0 -19 4.5 -31.5t16.5 -20t33.5 -10.5t55.5 -3h363zM516 690q-5 13 -13.5 30.5t-18.5 35.5t-21 36.5t-21 34.5l27 9q11 -16 22 -34t21 -36t18.5 -35t13.5 -30z"     />

    
    <glyph glyph-name="cid15908" unicode="&#x5B8C;" d="M865 -24q16 0 26.5 5t16 20t8 43.5t3.5 75.5q15 -8 29 -13q-2 -49 -5.5 -80t-12 -49t-24 -24.5t-40.5 -6.5h-181q-26 0 -43 2.5t-27 9t-14 18.5t-4 31v309h-216q-6 -84 -22.5 -148t-51.5 -111t-92 -78.5t-144 -52.5q-2 5 -7 12t-10 11q85 19 140 49t88 74.5t48.5 104.5
t21.5 139h-291v29h877v-29h-312v-309q0 -20 10.5 -26t46.5 -6h182zM217 505v29h569v-29h-569zM123 510h-29v193h415q-13 27 -32.5 61.5t-38.5 63.5l27 9q11 -15 22 -33t21 -36t18.5 -35t14.5 -30h364v-193h-29v164h-753v-164z"     />

    
    <glyph glyph-name="cid15937" unicode="&#x5B9A;" d="M953 -24q-5 -6 -9 -14.5t-5 -14.5h-216q-87 0 -161 9.5t-135 36t-109 74t-82 123.5q-52 -166 -165 -265q-3 4 -10.5 10t-13.5 10q86 70 133 178.5t67 251.5l29 -4q-5 -37 -12 -71.5t-15 -66.5q35 -98 95 -151.5t140 -77.5v487h-285v29h614v-29h-300v-208h323v-29h-323
v-258q48 -11 100 -15.5t111 -4.5h229zM123 525h-29v185h812v-185h-29v156h-754v-156zM503 713q-8 22 -25 53.5t-34 58.5l27 8q18 -26 35.5 -57t25.5 -52z"     />

    
    <glyph glyph-name="cid15944" unicode="&#x5B9D;" d="M639 198q24 -17 50 -36t51.5 -38.5t47.5 -37.5t38 -32l-20 -23q-16 14 -38 32.5t-47 39t-51.5 40.5t-50.5 37zM942 -12v-29h-883v29h425v253h-306v29h306v206h-324v29h682v-29h-329v-206h311v-29h-311v-253h429zM123 507h-29v185h429q-16 29 -36 65.5t-39 66.5l25 10
q22 -33 45 -73t37 -69h351v-185h-29v156h-754v-156z"     />

    
    <glyph glyph-name="cid15946" unicode="&#x5B9E;" d="M931 237v-29h-434q-21 -51 -52.5 -93.5t-79 -76t-112 -59t-149.5 -43.5q-2 5 -7.5 13t-10.5 13q82 16 143.5 39.5t107.5 54t77 68.5t51 84h-390v29h402q26 73 34.5 165t11.5 207h30q-4 -114 -12.5 -205.5t-32.5 -166.5h423zM562 169q51 -23 102.5 -48.5t98.5 -52.5
t88 -54.5t72 -54.5l-20 -21q-63 53 -158 108t-200 102zM170 427q22 -12 46 -27.5t45.5 -32t40.5 -32.5t31 -30l-19 -24q-13 14 -31.5 31t-40.5 33.5t-45.5 32.5t-45.5 29zM399 447q-12 13 -29 29t-37 32t-41.5 31.5t-42.5 27.5l20 19q21 -12 42.5 -27t41.5 -31t37 -31.5
t29 -28.5zM133 519h-29v177h414q-11 26 -30.5 61t-39.5 64l28 9q21 -31 42 -68t31 -62l-10 -4h358v-177h-29v148h-735v-148z"     />

    
    <glyph glyph-name="cid15995" unicode="&#x5BB6;" d="M830 455q-38 -32 -85 -66.5t-95 -66.5q20 -56 50.5 -107t69 -93.5t85 -75.5t97.5 -52q-5 -5 -11 -11.5t-9 -12.5q-51 21 -97 55t-85.5 77.5t-70.5 95t-52 108.5q-17 -11 -33.5 -21t-31.5 -19q15 -51 18 -100.5t-3.5 -91.5t-21.5 -73t-37 -45q-21 -14 -40 -19t-48 -5
q-16 0 -40 0.5t-49 2.5q0 6 -2.5 14t-5.5 14q27 -2 52 -3.5t39 -1.5q23 0 40 3t34 14q17 10 29.5 33.5t19 56t6.5 72t-9 82.5q-41 -36 -95 -71t-113.5 -66t-122 -56.5t-120.5 -42.5q-2 6 -7 14t-10 13q60 15 125.5 40.5t127.5 57.5t116 68t92 72q-7 26 -16.5 52t-23.5 52
q-36 -27 -83 -54.5t-98 -52.5t-103.5 -46.5t-99.5 -36.5q-2 6 -7 14t-10 13q47 13 101 33.5t106.5 45.5t100 52.5t80.5 54.5q-14 23 -31 44.5t-37 41.5q-71 -42 -150 -75t-153 -57q-2 5 -8.5 13t-11.5 12q50 15 102.5 34t103 42t96.5 49.5t83 55.5h-276v29h596v-29h-279
q-37 -33 -82 -60q43 -41 71.5 -88.5t45.5 -97.5q31 19 65.5 42.5t68 48t64 48.5t53.5 45zM127 546h-29v185h393q-11 22 -24.5 47.5t-28.5 45.5l28 9q16 -23 32.5 -52t25.5 -50h385v-185h-29v156h-753v-156z"     />

    
    <glyph glyph-name="cid16002" unicode="&#x5BB9;" d="M537 526q-10 -15 -19 -27q42 -53 91 -96.5t103.5 -80t114 -66.5t122.5 -57q-6 -5 -12 -12t-10 -14q-42 19 -81.5 38.5t-77.5 41.5v-318h-29v33h-480v-40h-29v315q-81 -49 -161 -83q-5 5 -11 12t-12 12q70 28 137.5 66.5t128 85t111.5 98.5t88 106zM739 -3v228h-480v-228
h480zM766 254q-75 45 -141 98.5t-125 124.5q-50 -62 -115 -118.5t-139 -104.5h520zM374 614q-26 -32 -58 -62.5t-66.5 -59t-70 -53.5t-69.5 -45q-3 5 -10.5 11.5t-13.5 11.5q35 19 71 42.5t69.5 50t64 55.5t54.5 58zM630 623q37 -22 76.5 -48.5t76.5 -54t68.5 -54
t53.5 -48.5l-19 -23q-22 22 -53.5 49.5t-68.5 55.5t-76 55t-76 50zM123 578h-29v148h416q-11 22 -25.5 48.5t-30.5 49.5l27 9q17 -25 34 -55t27 -52h364v-148h-29v119h-754v-119z"     />

    
    <glyph glyph-name="cid16009" unicode="&#x5BBE;" d="M926 194v-29h-856v29h177v349q66 6 136 14.5t137 18.5t125.5 21t100.5 22l28 -24q-47 -12 -106 -23.5t-124.5 -21t-133.5 -18t-134 -14.5v-109h571v-29h-184v-186h263zM276 194h358v186h-358v-186zM633 107q35 -17 74 -36.5t76.5 -39t70.5 -38t56 -32.5l-13 -29
q-24 15 -57.5 34t-71 39.5t-76.5 41t-74 37.5zM364 95q-29 -22 -63 -44.5t-69.5 -43.5t-71.5 -40.5t-69 -34.5q-4 5 -12 11.5t-14 11.5q34 15 70.5 32.5t72 37.5t68.5 41t60 42zM117 512h-29v202h432q-14 21 -36.5 50.5t-45.5 52.5l27 17q24 -24 48 -53.5t38 -49.5l-23 -17
h385v-202h-29v173h-767v-173z"     />

    
    <glyph glyph-name="cid16034" unicode="&#x5BCC;" d="M912 738v-160h-29v131h-763v-131h-29v160h406q-12 20 -26.5 43.5t-28.5 43.5l26 12q17 -23 35 -51t29 -48h380zM232 358v162h535v-162h-535zM261 387h477v104h-477v-104zM802 596h-601v29h601v-29zM171 279h671v-344h-29v35h-613v-42h-29v351zM200 -1h282v113h-282v-113z
M813 -1v113h-302v-113h302zM813 250h-302v-109h302v109zM200 250v-109h282v109h-282z"     />

    
    <glyph glyph-name="cid16134" unicode="&#x5BF9;" d="M644 180q-6 24 -18.5 55t-28.5 64t-35 66t-38 62l27 10q20 -29 39 -61.5t35 -65.5t28.5 -63.5t18.5 -54.5zM950 567h-132v-583q0 -23 -8.5 -33t-25.5 -15t-52 -5.5t-100 0.5q-2 5 -5.5 13t-7.5 15q54 -2 93.5 -1.5t51.5 1.5q13 1 19 6t6 19v583h-311v29h311v232h29v-232
h132v-29zM422 702q-19 -115 -51 -214.5t-75 -183.5q37 -60 67 -114.5t50 -97.5l-28 -18q-18 41 -45 91.5t-61 107.5q-48 -89 -103.5 -154.5t-115.5 -108.5q-4 7 -10.5 14t-12.5 11q61 41 118.5 109t106.5 159q-43 71 -90 142t-93 134l24 14q45 -59 89.5 -125t84.5 -132
q36 74 64.5 159.5t45.5 182.5h-325v29h334l6 2z"     />

    
    <glyph glyph-name="cid16136" unicode="&#x5BFA;" d="M699 470v-157h231v-29h-231v-298q0 -23 -7.5 -32.5t-26.5 -14.5t-60.5 -5.5t-111.5 -0.5q-2 7 -5.5 14.5t-7.5 15.5q63 -2 107.5 -2t58.5 1t19 5.5t5 17.5v299h-591v29h591v157h-610v29h423v167h-339v29h339v134h29v-134h359v-29h-359v-167h430v-29h-243zM245 228
q25 -19 50 -41.5t47.5 -46t41.5 -46.5t31 -42l-24 -18q-12 19 -30.5 42.5t-41 47t-48 46.5t-50.5 42z"     />

    
    <glyph glyph-name="cid16156" unicode="&#x5C06;" d="M940 308h-133v-328q0 -22 -7 -31.5t-24 -14.5t-54 -5h-97q-2 6 -5.5 14t-7.5 16q54 -2 93 -2t52 1t17 5.5t4 15.5v329h-430v29h430v151h29v-151h133v-29zM461 247q22 -20 43.5 -43.5t41 -47.5t35.5 -47.5t26 -42.5l-25 -18q-10 20 -26 43.5t-35.5 48t-41 48.5t-43.5 44z
M256 829h29v-899h-29v395q-48 -49 -95.5 -97t-88.5 -88l-24 22q19 18 43.5 40.5t51.5 49t55.5 55l57.5 57.5v465zM205 503q-10 19 -25.5 41.5t-35 46t-41 46.5t-43.5 43l23 16q21 -19 43 -41.5t41.5 -46t35.5 -45.5t26 -41zM586 718q-45 -38 -96.5 -70.5t-108.5 -58.5
q-4 5 -9.5 9.5t-9.5 8.5q45 20 87.5 45.5t80 54t68.5 59.5t52 63l29 -11q-13 -19 -28.5 -36.5t-32.5 -34.5h264l6 2l19 -12q-35 -72 -92.5 -129t-128 -100t-148.5 -73t-154 -47q-2 6 -6.5 13.5t-9.5 11.5q66 14 134 37.5t132 57.5q-20 29 -52 61.5t-64 58.5l23 15
q33 -26 66 -59t52 -61q66 38 118.5 86.5t86.5 108.5h-278z"     />

    
    <glyph glyph-name="cid16224" unicode="&#x5C31;" d="M865 -16q12 0 24 1t18 4q14 7 18 27q3 13 4 40.5t2 65.5q12 -11 25 -12q-1 -33 -3 -66.5t-5 -45.5q-6 -24 -26 -32q-9 -5 -25 -6.5t-30 -1.5h-64q-14 0 -28.5 2t-25.5 8t-15 20t-4 56v384h29v-395q0 -39 12 -44q11 -5 33 -5h61zM693 537q-7 -87 -21.5 -174t-40.5 -166.5
t-66.5 -148t-99.5 -117.5q-5 2 -12 6.5t-13 7.5q58 48 98 114.5t65.5 144.5t39.5 163t21 170h-141v29h143q5 69 6 135.5t1 126.5h30q-1 -61 -2 -127t-6 -135h248v-29h-250zM452 91q-5 18 -12.5 40t-17 45t-21 46t-23.5 43l25 11q12 -20 24 -43t22 -46t17.5 -45t12.5 -40z
M313 344v-370q0 -15 -4.5 -22t-15.5 -11q-12 -4 -34 -5t-61 0q-1 5 -4.5 12l-6.5 13q31 -1 53.5 -1t29.5 1q14 0 14 13v370h-158v215h341v-215h-154zM155 373h283v157h-283v-157zM200 260q-17 -63 -43.5 -121t-57.5 -100q-5 3 -13.5 7.5t-14.5 7.5q33 42 58 97t42 114z
M515 668h-454v29h242q-10 28 -25.5 62.5t-31.5 63.5l27 8q19 -32 36 -69.5t25 -64.5h181v-29zM873 617q-6 15 -17 33t-24 36.5t-28 37t-30 34.5l23 13q31 -32 59 -70t42 -67z"     />

    
    <glyph glyph-name="cid16247" unicode="&#x5C40;" d="M897 416q0 -121 -5 -204t-13.5 -136.5t-19 -82.5t-22.5 -42q-11 -12 -24.5 -16t-35.5 -5q-21 -1 -60.5 0t-82.5 5q-1 6 -3 14t-7 15q25 -2 48.5 -3.5t43 -2.5t34 -1h21.5q16 0 25 2t16 10q9 10 17 37t14.5 78.5t12 130.5t10.5 192h-675q-4 -56 -12 -115t-23.5 -117
t-38.5 -114t-57 -106q-4 5 -12 11t-13 9q44 63 69.5 136t39 147.5t17.5 147t4 134.5v232h666v-227h-636v-5q0 -24 -0.5 -50t-1.5 -54h704v-20zM195 743v-169h607v169h-607zM343 69v-57h-29v296h368v-239h-339zM343 278v-180h310v180h-310z"     />

    
    <glyph glyph-name="cid16251" unicode="&#x5C42;" d="M522 257q-48 -73 -101.5 -139.5t-107.5 -119.5l494 28q-28 41 -58 83t-58 79l23 12q24 -32 50 -67.5t50.5 -71t45.5 -67t35 -55.5l-24 -17q-10 16 -21.5 35.5t-26.5 40.5q-124 -7 -212 -12t-148 -9t-96.5 -6.5t-57 -4.5t-30 -4t-15.5 -4q-2 6 -5 17t-5 18q11 2 26.5 15.5
t34.5 33.5q9 10 28 31t42 50t48 63.5t48 70.5h-258v29h716v-29h-417zM299 423v29h569v-29h-569zM181 562v-76q0 -62 -3.5 -133.5t-15.5 -145t-35 -144.5t-61 -132q-4 4 -12 8.5t-13 6.5q38 60 60 129.5t33.5 141t14.5 140.5t3 129v291h718v-215h-689zM181 748v-157h660v157
h-660z"     />

    
    <glyph glyph-name="cid16285" unicode="&#x5C55;" d="M872 204q-40 -33 -90.5 -65t-96.5 -58q54 -46 121.5 -79t145.5 -50q-5 -5 -10.5 -12t-8.5 -13q-140 35 -244 116t-156 203h-173v-255l263 65q0 -7 0.5 -14.5t2.5 -12.5q-106 -29 -167.5 -45.5t-94.5 -26.5t-45.5 -15t-18.5 -9q-2 7 -7 16t-10 15q6 3 13.5 7.5t15 11.5
t12.5 17.5t5 24.5v221h-136v29h209v141h-175v29h175v104h29v-104h253v104h29v-104h194v-29h-194v-141h231v-29h-382q37 -82 103 -147q22 12 47 27.5t50 32t47.5 32.5t39.5 30zM431 275h253v141h-253v-141zM181 580v-94q0 -62 -3.5 -133.5t-15.5 -145t-35 -145t-61 -132.5
q-4 4 -12 9t-13 7q38 60 60 129.5t33.5 141t14.5 140.5t3 129v291h724v-197h-695zM181 748v-139h666v139h-666z"     />

    
    <glyph glyph-name="cid16573" unicode="&#x5CF0;" d="M863 733q-27 -63 -69 -115.5t-93 -97.5q48 -40 110 -72.5t137 -52.5q-5 -5 -11 -12.5t-10 -13.5q-76 23 -137.5 57t-111.5 76q-63 -51 -133 -87.5t-139 -59.5q-3 6 -9 13t-11 12q68 20 138 56t132 84q-38 36 -67.5 73.5t-49.5 73.5q-30 -38 -64 -70.5t-69 -58.5
q-3 5 -9.5 12.5t-11.5 12.5q34 24 66 53.5t60.5 63.5t51.5 71.5t40 78.5l30 -7q-16 -40 -41 -81h245l7 2zM574 713q-4 -5 -7.5 -10t-6.5 -10q37 -79 118 -154q45 38 81 81t61 93h-246zM687 96h240v-29h-240v-138h-29v138h-250v29h250v100h-201v29h201v92h-206v29h206v76h29
v-76h205v-29h-205v-92h201v-29h-201v-100zM321 661h29v-599h-29v34l-235 -19v581h29v-551l88 8v706h29v-704l89 7v537z"     />

    
    <glyph glyph-name="cid17052" unicode="&#x5DDE;" d="M656 578q19 -29 38.5 -61.5t36 -65t29.5 -62.5t20 -54l-29 -13q-8 24 -20.5 54.5t-29 63.5t-35 66t-37.5 62zM371 566q13 -29 26 -62t23.5 -65.5t18.5 -62t12 -52.5l-31 -9q-4 24 -11.5 54t-18 63t-23 66t-25.5 62zM175 572q-8 -29 -19 -63t-25 -68.5t-30.5 -66.5
t-35.5 -57l-25 14q19 24 36 55.5t31 65t25 67t19 62.5zM876 817v-873h-29v873h29zM568 791v-790h-29v790h29zM276 813v-302q0 -77 -5.5 -153t-24.5 -150t-55.5 -143.5t-99.5 -132.5q-4 5 -10.5 10.5t-11.5 9.5q61 61 96.5 128.5t53.5 138.5t23 144.5t5 146.5v303h29z"     />

    
    <glyph glyph-name="uni5DE5" unicode="&#x5DE5;" d="M942 43v-29h-882v29h425v636h-376v29h789v-29h-384v-636h428z"     />

    
    <glyph glyph-name="cid17069" unicode="&#x5DE8;" d="M913 -3v-29h-710v813h687v-29h-658v-203h602v-318h-602v-234h681zM232 520v-260h573v260h-573z"     />

    
    <glyph glyph-name="cid17105" unicode="&#x5E02;" d="M512 644v-161h328v-366q0 -21 -6.5 -31t-25.5 -15q-20 -5 -62 -5.5t-112 -0.5q-2 8 -5.5 15l-7.5 15q65 -2 108.5 -2.5t58.5 1.5q14 1 18.5 6t4.5 16v338h-299v-526h-29v526h-285v-396h-29v425h314v161h-424v29h883v-29h-430zM511 678q-5 14 -14 32.5t-19.5 38.5t-22 40
t-23.5 37l26 9q24 -35 47 -76t34 -70z"     />

    
    <glyph glyph-name="cid17106" unicode="&#x5E03;" d="M381 636q-56 -115 -132 -215h279v155h29v-155h314v-334q0 -19 -6.5 -28t-23.5 -14t-58 -5.5t-113 0.5q-3 10 -13 26q62 -2 105 -1.5t57 1.5t18.5 5t4.5 16v305h-285v-465h-29v465h-268v-366h-29v373q-74 -90 -166 -156q-4 5 -9.5 11t-10.5 10q100 71 175 167t128 205
h-280v29h294q19 41 34 82t28 83l30 -8q-12 -40 -27.5 -79t-32.5 -78h539v-29h-552z"     />

    
    <glyph glyph-name="cid17111" unicode="&#x5E08;" d="M666 743v-157h222v-459q0 -17 -4.5 -25t-18.5 -12q-14 -5 -39.5 -5.5t-69.5 -0.5q-2 6 -5.5 13.5t-7.5 14.5q38 -1 64.5 -0.5t35.5 0.5q10 1 13 4t3 11v430h-193v-627h-29v627h-178v-486h-29v515h207v157h-252v29h556v-29h-275zM271 831h29v-403q0 -74 -5 -142t-22 -131
t-49 -119.5t-86 -106.5q-4 5 -10 11t-12 9q52 48 82.5 103t46.5 115.5t21 126t5 134.5v403zM145 235h-28v482h28v-482z"     />

    
    <glyph glyph-name="cid17168" unicode="&#x5E2E;" d="M914 772q-31 -42 -66.5 -86t-70.5 -84q71 -41 99 -78t29 -72q1 -53 -42 -72q-11 -5 -26.5 -8.5t-28.5 -5.5q-28 -2 -60.5 -2t-63.5 3q-2 13 -12 27q79 -8 132 -3q27 3 45 10q30 13 30 51q-1 32 -32.5 67.5t-107.5 77.5q37 41 70 82.5t58 77.5h-239v-458h-29v487h292l5 2z
M850 35q0 -17 -5.5 -26t-22.5 -14q-18 -5 -57.5 -5h-108.5q-2 6 -5 12.5t-7 13.5q60 -1 101 -1t54 1q14 1 18 4.5t4 14.5v188h-308v-294h-29v294h-288v-242h-29v271h317v83h29v-83h337v-217zM295 442q-23 -45 -67 -90.5t-117 -80.5q-4 5 -10 11.5t-11 11.5q69 31 111 69.5
t65 78.5h-207v29h221q14 32 18.5 61t4.5 49h-203v29h203v100h-224v29h224v91h29v-91h202v-29h-202v-100h188v-29h-188q0 -18 -5 -46.5t-19 -63.5h237v-29h-250z"     />

    
    <glyph glyph-name="cid17186" unicode="&#x5E38;" d="M908 657v-188h-29v159h-749v-159h-29v188h398v173h29v-173h380zM844 22q0 -18 -5 -26.5t-22 -13.5q-18 -5 -55 -5h-101q-2 6 -5 12.5t-7 14.5q57 -2 94.5 -2.5t51.5 1.5q12 1 16 5t4 13v186h-287v-279h-29v279h-304v-232h-29v261h333v106h-251v192h518v-192h-238v-106
h316v-214zM277 371h460v134h-460v-134zM279 675q-7 13 -17.5 29.5t-23 34t-26 34.5t-26.5 32l26 13q13 -15 27 -32t27 -34t23.5 -33t17.5 -29zM817 806q-23 -35 -51 -71t-52 -62l-21 13q12 13 25 30.5t26.5 36t25 36.5t20.5 33z"     />

    
    <glyph glyph-name="cid17287" unicode="&#x5E76;" d="M942 300h-241v-370h-29v370h-340q-4 -53 -16 -104t-40 -98.5t-75.5 -91t-121.5 -81.5q-3 5 -9.5 11t-11.5 10q71 36 117 77.5t73 86.5t39 93t16 97h-244v29h245q1 11 1 20v20v219h-205v29h527q13 22 28 49.5t29 56t26.5 56.5t21.5 51l30 -12q-23 -49 -50.5 -103.5
t-53.5 -97.5h250v-29h-207v-259h241v-29zM672 329v259h-338v-219v-20t-1 -20h339zM347 634q-8 19 -20 41.5t-27.5 46.5t-33 48t-35.5 45l25 12q18 -21 35.5 -44.5t33 -47.5t28 -46.5t19.5 -40.5z"     />

    
    <glyph glyph-name="cid17336" unicode="&#x5E8F;" d="M945 709v-29h-785v-253q0 -55 -3 -119t-13 -130.5t-28.5 -131t-48.5 -119.5q-4 5 -11.5 10t-12.5 7q30 54 47.5 116t26.5 126t11.5 125.5t2.5 115.5v282h416q-12 25 -29.5 56t-34.5 57l26 10q19 -29 39 -63.5t32 -59.5h365zM918 342l22 -12q-48 -52 -94.5 -104t-90.5 -86
l-24 15q36 29 77.5 70.5t77.5 85.5h-299v-331q0 -23 -7 -32t-27 -14t-62.5 -5.5t-113.5 -0.5q-2 8 -5.5 15l-7.5 15q66 -2 110.5 -2t59.5 1q15 2 19.5 6.5t4.5 15.5v332h-350v29h433q-27 14 -59.5 30.5t-68 34t-71.5 34t-69 30.5l17 20q38 -16 80.5 -34.5t83.5 -37.5
q28 12 57.5 28.5t58 35t55 38t48.5 38.5h-496v29h527l6 2l23 -15q-24 -24 -54 -48t-62.5 -46t-66.5 -41.5t-66 -35.5l57 -28.5t48 -25.5l-6 -8h227z"     />

    
    <glyph glyph-name="cid17341" unicode="&#x5E93;" d="M950 111h-310v-181h-29v181h-389v29h389v150h-197q-42 0 -61.5 -3.5t-27.5 -9.5q-1 5 -4 15.5t-6 15.5q11 2 23 18.5t28 41.5q10 15 32 53.5t46 89.5h-191v29h206q12 26 23 53t21 53l29 -13q-10 -23 -21 -46.5t-22 -46.5h409v-29h-422q-26 -53 -53.5 -101.5t-55.5 -90.5
h244v127h29v-127h245v-29h-245v-150h310v-29zM160 693v-266q0 -56 -3 -120.5t-13 -131t-28 -131.5t-49 -120q-4 5 -11.5 10t-12.5 7q30 54 47.5 116.5t26.5 126.5t11.5 126.5t2.5 116.5v295h411q-12 22 -29 46.5t-34 44.5l24 13q22 -23 42.5 -52t31.5 -52h368v-29h-785z"     />

    
    <glyph glyph-name="cid17342" unicode="&#x5E94;" d="M948 13v-29h-746v29h424q36 61 69 129t61 138.5t50.5 141t37.5 136.5l29 -15q-36 -131 -91 -268t-126 -262h292zM381 147q-8 35 -20.5 78t-27.5 88.5t-31.5 91t-32.5 85.5l25 12q16 -41 33 -86.5t32.5 -91t28 -88t20.5 -76.5zM590 197q-5 35 -14.5 77.5t-21 88t-24.5 91
t-25 85.5l26 11q13 -41 26.5 -86.5t25 -91t21 -88t14.5 -77.5zM163 659v-247q0 -54 -3 -116.5t-13 -127.5t-28.5 -128t-48.5 -117q-4 5 -11.5 10t-12.5 7q30 53 47.5 113.5t26.5 123t11.5 122.5t2.5 113v276h798v-29h-769zM549 699q-11 25 -30 59.5t-38 63.5l26 11
q20 -29 39.5 -63.5t30.5 -57.5z"     />

    
    <glyph glyph-name="cid17349" unicode="&#x5E97;" d="M932 697v-29h-764v-239q0 -55 -3.5 -119.5t-14.5 -131t-31 -131t-54 -119.5q-3 4 -10.5 9.5t-13.5 7.5q33 54 52.5 116t29.5 126t13 126t3 116v268h412q-12 27 -32 58.5t-40 57.5l25 11q24 -29 47 -64t34 -63h347zM550 486h344v-29h-344v-179h294v-332h-29v37h-496v-40
h-29v335h231v352h29v-144zM815 249h-496v-237h496v237z"     />

    
    <glyph glyph-name="cid17546" unicode="&#x5EFA;" d="M953 -12q-5 -6 -9 -14.5t-6 -14.5h-265q-75 0 -142 6.5t-124.5 23t-106.5 46t-89 74.5q-29 -55 -64 -97t-74 -73q-4 5 -11 12t-12 11q81 63 141 172q-57 75 -91 192l25 13q32 -107 79 -175q58 119 82 291h-165q18 27 38 60.5t40.5 70t41 73.5t38.5 72h-208v29h257
q-18 -33 -38 -69t-40 -72.5t-40 -71t-38 -63.5h124l6 1l18 -7q-14 -103 -38 -188t-57 -153q39 -45 86.5 -74t104 -45.5t121 -23t136.5 -6.5h280zM615 705h-215v29h215v89h29v-89h215v-132h83v-29h-83v-136h-215v-105h242v-29h-242v-113h286v-29h-286v-132h-29v132h-276v29
h276v113h-231v29h231v105h-223v29h223v107h-290v29h290v103zM830 573h-186v-107h186v107zM644 705v-103h186v103h-186z"     />

    
    <glyph glyph-name="cid17555" unicode="&#x5F00;" d="M942 372h-241v-444h-29v444h-332q-4 -62 -16.5 -122t-40.5 -116.5t-75 -109t-120 -98.5q-4 5 -10 11.5t-12 10.5q71 44 116.5 94t73 104t39.5 110.5t16 115.5h-252v29h253q1 14 1 28.5v28.5v270h-213v29h808v-29h-207v-327h241v-29zM672 401v327h-330v-270v-28.5
t-1 -28.5h331z"     />

    
    <glyph glyph-name="cid17614" unicode="&#x5F20;" d="M689 392q18 -71 43.5 -136t59.5 -120t75.5 -98.5t89.5 -71.5q-12 -9 -21 -23q-50 31 -92.5 77t-77 104t-61 126t-44.5 142h-128v-409l184 70q1 -5 1.5 -12t1.5 -12q-77 -32 -122.5 -51.5t-70 -30.5t-34 -16.5t-13.5 -9.5q-2 6 -6.5 15t-9.5 15q5 2 12 5.5t13 10.5
t10.5 16.5t4.5 23.5v385h-134v30h134v386h29v-386h419v-30h-263zM354 331v-8q0 -3 -0.5 -6t-0.5 -5q-5 -92 -10 -155t-11 -103.5t-13 -63t-17 -33.5t-22 -14.5t-32 -4.5q-17 -1 -51.5 0t-71.5 4q-1 7 -3 14.5t-7 14.5q43 -4 79 -4.5t48 -0.5q26 -1 36 9q7 8 13.5 28.5t12 59
t10 97t9.5 141.5h-215q4 24 7.5 56t7 66t6 68.5t4.5 64.5h186v195h-210v29h239v-253h-188q-4 -49 -8.5 -101.5t-9.5 -94.5h212zM894 772q-51 -91 -126.5 -169.5t-158.5 -133.5q-3 3 -11 9t-14 9q85 52 159 128.5t122 164.5z"     />

    
    <glyph glyph-name="cid17713" unicode="&#x5F52;" d="M894 725v-770h-28v69h-421v29h421v321h-374v29h374v296h-404v26h432zM324 830h29v-397q0 -74 -6 -143.5t-27 -132.5t-61 -120t-107 -106q-3 5 -9.5 11.5t-11.5 9.5q64 47 102.5 101.5t58.5 115.5t26 127t6 137v397zM146 240h-30v468h30v-468z"     />

    
    <glyph glyph-name="cid17784" unicode="&#x5F7B;" d="M919 743q0 -213 -3 -354t-9 -229t-15 -131.5t-21 -61.5q-11 -15 -24 -21t-32 -7t-47 -0.5t-57 2.5q0 8 -1.5 16.5t-6.5 14.5q37 -3 66.5 -3t42.5 -1q11 0 18 3t15 14q9 13 16 57t12.5 131.5t9.5 225.5t7 339h-165q-2 -137 -8 -259.5t-33 -226t-82 -185.5t-154 -137
q-4 5 -11.5 11t-13.5 10q97 52 151.5 132t81 181.5t33 221.5t7.5 252h-127v29h350v-24zM577 269q2 -6 5 -13t5 -11q-64 -40 -101.5 -64t-58 -37.5t-28.5 -20t-12 -11.5q-2 6 -7.5 15t-9.5 14q8 5 17 17.5t9 41.5v331l-111 -26l-7 26l118 28v233h29v-226l134 33l6 -27
l-140 -33v-358zM282 613q-20 -37 -44 -73.5t-50 -71.5v-538h-29v500q-26 -32 -52 -60t-52 -53q-4 4 -11.5 10.5t-12.5 11.5q62 54 121.5 129t101.5 154zM261 819q-18 -27 -40.5 -56.5t-47.5 -58t-51.5 -54.5t-52.5 -48q-3 5 -9 10.5t-11 10.5q25 21 51 46t50 52t45 55t36 54
z"     />

    
    <glyph glyph-name="cid17801" unicode="&#x5F85;" d="M796 461v-145h151v-29h-151v-302q0 -23 -6.5 -32.5t-23.5 -14.5t-53.5 -5.5t-96.5 -0.5q-2 7 -5.5 15t-7.5 16q54 -2 92.5 -1.5t51.5 1.5t17 5.5t4 15.5v303h-427v29h427v145h-442v29h299v166h-236v29h236v140h28v-140h242v-29h-242v-166h300v-29h-157zM461 236
q19 -20 37.5 -43t35.5 -46.5t31 -45.5t23 -40l-24 -17q-9 18 -22.5 40.5t-30.5 46t-36 47t-37 43.5zM313 597q-17 -32 -37.5 -62.5t-42.5 -59.5v-545h-29v507q-33 -41 -69 -76.5t-71 -64.5q-4 4 -11.5 10.5t-13.5 11.5q70 54 135.5 129.5t109.5 158.5zM304 817
q-20 -30 -45.5 -61t-55.5 -60.5t-62 -56.5t-63 -49q-3 5 -9 11.5t-11 10.5q30 21 61.5 46.5t60 53.5t53 57.5t41.5 57.5z"     />

    
    <glyph glyph-name="cid17806" unicode="&#x5F88;" d="M906 290q-22 -19 -47.5 -38t-52.5 -37t-53.5 -34.5t-50.5 -30.5q47 -65 110 -111.5t142 -71.5q-14 -12 -21 -26q-138 49 -229 158.5t-135 264.5h-133v-380l214 57q0 -7 0.5 -15t1.5 -13q-81 -24 -129.5 -38t-74.5 -22t-36 -12.5t-16 -8.5q-2 6 -7 14.5t-10 15.5
q8 4 18 15.5t10 39.5v765h453v-418h-261q30 -106 86 -191q24 14 51.5 31t54 35t50.5 36t43 34zM436 753v-164h395v164h-395zM436 393h395v167h-395v-167zM313 597q-19 -33 -40.5 -65.5t-44.5 -62.5v-539h-29v501q-32 -38 -66 -72t-69 -63q-4 5 -11.5 11.5t-13.5 11.5
q70 53 135.5 128.5t109.5 158.5zM304 817q-20 -30 -45.5 -61t-55.5 -60.5t-62 -56.5t-64 -49q-2 5 -8 11.5t-11 10.5q30 21 61.5 46.5t60 53.5t53 57.5t41.5 57.5z"     />

    
    <glyph glyph-name="cid17828" unicode="&#x5F97;" d="M950 218h-162v-243q0 -20 -6 -28.5t-23 -13.5t-53 -5.5t-96 -0.5q-2 7 -5.5 14l-7.5 15q54 -2 91.5 -1.5t49.5 1.5q13 2 17 5t4 14v243h-439v29h439v115h-419v29h596v-29h-148v-115h162v-29zM450 180q19 -17 38.5 -36.5t37 -39.5t32.5 -39t25 -34l-24 -19
q-10 16 -25 35.5t-32.5 39.5t-37 40.5t-37.5 37.5zM307 597q-35 -64 -79 -121v-546h-29v510q-35 -42 -71.5 -78t-73.5 -65q-3 4 -10.5 10.5t-13.5 11.5q36 26 70.5 59t67 69.5t60.5 76.5t51 81zM299 817q-20 -30 -45.5 -61t-55.5 -61t-62 -57t-63 -48q-3 5 -9 11t-11 10
q30 21 61.5 46.5t60 53.5t53 57.5t41.5 57.5zM873 484h-459v313h459v-313zM844 627h-401v-114h401v114zM844 768h-401v-112h401v112z"     />

    
    <glyph glyph-name="cid17870" unicode="&#x5FAE;" d="M915 586q-17 -131 -44 -236t-72 -190q30 -70 67.5 -122.5t85.5 -81.5q-11 -10 -22 -24q-46 31 -82.5 81.5t-64.5 115.5q-35 -60 -81.5 -109.5t-106.5 -91.5q-3 5 -10 12l-12 12q64 41 112 93t84 117q-26 69 -45.5 147t-32.5 163q-9 -32 -20 -60t-23 -54q-4 4 -12 9t-15 8
q21 42 37 94t28 110.5t21 122t15 128.5l30 -4q-6 -56 -12.5 -108t-15.5 -103h227v-29h-36zM718 586q-3 -14 -5.5 -26.5t-5.5 -25.5q12 -92 31 -178t48 -161q38 80 62 177t38 214h-168zM658 171q2 -6 6.5 -13t7.5 -11q-40 -30 -65 -48.5t-39.5 -30t-21.5 -18.5t-12 -13
q-2 6 -7 15.5t-9 14.5q7 4 16 15.5t9 40.5v159h-183v-90q0 -30 -3.5 -63.5t-13.5 -68t-28 -68.5t-46 -64q-3 5 -9.5 12t-11.5 10q26 27 42.5 58t25.5 63t12 63t3 59v118h241v-201zM267 631q-17 -33 -36 -66t-40 -64v-569h-29v525q-28 -38 -57 -74t-59 -65q-4 4 -11.5 11
t-12.5 11q30 28 60 63t58 74t53 80t45 83zM241 820q-17 -28 -38 -57.5t-45 -58t-49.5 -55t-50.5 -48.5q-3 5 -9.5 11.5l-10.5 10.5q24 21 49 46t48 52t43 55t34 54zM611 401h-332v29h332v-29zM605 526h-297v225h29v-196h111v275h29v-275h99v196h29v-225z"     />

    
    <glyph glyph-name="uni5FC3" unicode="&#x5FC3;" d="M325 557v-526q0 -33 16 -44.5t64 -11.5h243q27 0 43.5 9t26 34.5t14 70t7.5 115.5q7 -5 14.5 -9t14.5 -6q-3 -71 -8 -118t-18 -75t-35.5 -39t-60.5 -11h-238q-32 0 -53.5 3.5t-34.5 13t-18.5 26.5t-5.5 44v524h29zM184 460q-6 -40 -16.5 -88.5t-24 -99t-29.5 -98.5
t-34 -86l-27 13q19 37 35 84.5t29.5 97t23.5 97.5t16 87zM812 487q22 -45 44 -96t41 -101.5t33.5 -97.5t22.5 -86l-27 -9q-9 39 -23.5 86.5t-33.5 98.5t-40 101.5t-43 95.5zM375 775q36 -27 74 -58t73.5 -62.5t66 -61t51.5 -53.5l-20 -19q-21 24 -51.5 54t-65.5 62t-73.5 63
t-74.5 58z"     />

    
    <glyph glyph-name="cid17967" unicode="&#x5FEB;" d="M967 328h-323q21 -65 51.5 -123.5t71 -107.5t90 -86t106.5 -58q-6 -5 -12.5 -12.5t-10.5 -14.5q-58 24 -108 64t-91 92t-72.5 114.5t-52.5 131.5q-9 -54 -27.5 -108t-53 -105.5t-87.5 -99.5t-130 -89q-3 5 -9 12t-11 12q75 38 126 83t84.5 93.5t52 99.5t26.5 102h-268v29
h272q6 42 7 82t1 78v116h-218v29h218v169h29v-169h229v-305h110v-29zM628 518q0 -38 -1.5 -78.5t-6.5 -82.5h208v276h-200v-115zM326 485q-5 17 -13 38.5t-18.5 45.5t-22 48t-23.5 45l25 12q12 -21 24 -45t22 -47t18 -44.5t13 -37.5zM189 831h29v-900h-29v900zM40 389
q11 25 20 56.5t16 65.5t11.5 68t7.5 64l27 -5q-2 -29 -6.5 -63t-11.5 -68.5t-15.5 -67.5t-19.5 -58z"     />

    
    <glyph glyph-name="cid18044" unicode="&#x601D;" d="M780 249q23 -29 46.5 -62.5t44 -67t37 -64.5t25.5 -56l-28 -14q-10 25 -26 57t-36 65.5t-43 67.5t-46 63zM638 -19q21 0 34 5t20.5 20.5t10.5 44t5 75.5q7 -5 14.5 -8t14.5 -5q-2 -49 -6.5 -80.5t-15 -49.5t-28.5 -24.5t-48 -6.5h-238q-32 0 -52.5 2.5t-33 9t-17.5 19
t-5 32.5v233h29v-234q0 -10 3 -16.5t11 -10t23 -5t39 -1.5h240zM61 -13q20 24 37 55t31.5 64t25.5 66t19 61l26 -9q-9 -29 -20.5 -62.5t-25.5 -67t-31 -65t-36 -55.5zM601 143q-18 16 -43.5 36t-55 40t-61.5 39.5t-62 35.5l20 18q30 -15 61.5 -33.5t61.5 -38.5t55.5 -39.5
t43.5 -36.5zM837 357h-683v427h683v-427zM183 586h301v169h-301v-169zM183 386h301v171h-301v-171zM808 557h-295v-171h295v171zM808 755h-295v-169h295v169z"     />

    
    <glyph glyph-name="cid18061" unicode="&#x6027;" d="M934 -2v-29h-605v29h306v300h-231v29h231v252h-181q-19 -51 -40 -94.5t-45 -80.5q-5 3 -13 7.5t-14 7.5q48 69 83 165t57 199l29 -5q-9 -45 -21.5 -87t-26.5 -83h172v220h30v-220h251v-29h-251v-252h228v-29h-228v-300h269zM339 485q-5 17 -13 38.5t-18.5 45.5t-22 48
t-23.5 45l25 12q12 -21 24 -45t22 -47t18 -44t13 -37zM195 830h29v-898h-29v898zM40 390q11 24 20 55.5t16 65t11.5 67.5t7.5 64l27 -5q-2 -29 -6.5 -62.5t-11.5 -68t-15.5 -67t-19.5 -58.5z"     />

    
    <glyph glyph-name="cid66" unicode="&#x61;" d="M221 20q48 0 92.5 22t96.5 67v189q-86 -9 -144.5 -24t-94.5 -35.5t-52 -47.5t-16 -60q0 -30 9.5 -51.5t25.5 -34.5t37.5 -19t45.5 -6zM218 -13q-31 0 -58.5 8.5t-48.5 25.5t-33 44t-12 65q0 44 20.5 76.5t62.5 56.5t107 40t154 26q1 32 -3.5 63.5t-18.5 57t-39.5 41.5
t-66.5 16q-28 0 -53.5 -6t-47.5 -15.5t-40 -21t-31 -21.5l-18 29q12 9 31.5 20.5t44.5 22t54.5 18t61.5 7.5q46 0 77.5 -16t50 -43.5t26.5 -63.5t8 -76v-341h-30l-5 70h-3q-41 -33 -89 -58t-101 -25z"  horiz-adv-x="536"   />

    
    <glyph glyph-name="cid18449" unicode="&#x610F;" d="M929 578v-29h-852v29h548q18 29 37 65.5t31 64.5l28 -11l-30.5 -61t-31.5 -58h270zM777 160q20 -19 41 -41t40 -44.5t34.5 -43.5t26.5 -39l-25 -16q-10 18 -25.5 39.5t-34 44.5t-39.5 45.5t-42 41.5zM623 -34q18 0 29 3.5t17 16t8.5 36.5t4.5 64q7 -5 14.5 -8t14.5 -5
q-2 -42 -6 -68.5t-13 -41.5t-25 -20.5t-42 -5.5h-216q-29 0 -48.5 2t-30.5 8t-15.5 17.5t-4.5 29.5v153h29v-154q0 -8 2.5 -13.5t10 -8.5t20.5 -4t35 -1h216zM441 198q21 -13 43.5 -28.5t43.5 -32t39 -32.5t30 -30l-21 -19q-12 14 -30 30.5t-39 33t-43.5 32.5t-43.5 30z
M806 207h-607v278h607v-278zM777 332h-549v-96h549v96zM777 456h-549v-95h549v95zM82 -29q19 16 36 38t32 46t27.5 48t21.5 45l24 -11q-10 -22 -22 -46.5t-26.5 -48.5t-31 -46t-35.5 -40zM334 579q-6 24 -20.5 56.5t-32.5 59.5l27 10q18 -26 33.5 -58.5t21.5 -56.5zM880 709
h-760v29h398q-11 20 -26 43.5t-30 42.5l26 11q18 -22 36.5 -49t29.5 -48h326v-29z"     />

    
    <glyph glyph-name="cid67" unicode="&#x62;" d="M305 20q42 0 77.5 18.5t61 52t40 79.5t14.5 101q0 50 -9.5 93.5t-30.5 75t-55 49.5t-82 18q-41 0 -86 -23.5t-94 -67.5v-325q45 -39 88.5 -55t75.5 -16zM302 -13q-38 0 -80 18t-79 48h-3l-5 -53h-30v794h36v-234l-3 -106q42 35 89 60.5t97 25.5q54 0 93.5 -19t66 -54.5
t39.5 -85t13 -110.5q0 -67 -19 -120t-51 -89.5t-74.5 -55.5t-89.5 -19z"  horiz-adv-x="593"   />

    
    <glyph glyph-name="cid18925" unicode="&#x6210;" d="M874 499q-33 -100 -78.5 -183t-103.5 -155q35 -94 78.5 -144t97.5 -50q26 0 37.5 44t16.5 150q5 -5 13 -8.5t14 -5.5q-3 -59 -8 -99t-14 -64.5t-24 -35.5t-37 -11q-62 0 -110.5 52t-84.5 147q-53 -61 -114 -110t-133 -90q-4 5 -11 11.5t-12 11.5q153 80 259 209
q-29 87 -48.5 199t-29.5 244h-405v-155h265v-19q0 -90 -2 -151.5t-6 -101t-10 -60.5t-13 -30q-8 -11 -19.5 -14.5t-31.5 -4.5q-19 -1 -52.5 0t-71.5 4q-1 7 -3 15t-7 14q42 -4 77.5 -4.5t49.5 -0.5q11 0 19 1.5t13 7.5q6 6 10.5 25.5t7.5 56t5.5 93.5t4.5 140h-236v-57
q0 -50 -3.5 -107t-15 -116t-32 -115.5t-54.5 -104.5q-4 5 -11 10.5t-13 8.5q33 47 53 101t30.5 110t13.5 111t3 103v269h432q-3 46 -4.5 92.5t-2.5 95.5h30q0 -98 6 -188h333v-29h-331q18 -254 71 -417q103 134 162 313zM873 668q-16 14 -39 30.5t-49.5 33t-54.5 32
t-54 28.5l17 20q26 -13 54 -28.5t54.5 -31.5t49.5 -32t39 -29z"     />

    
    <glyph glyph-name="cid18926" unicode="&#x6211;" d="M877 423q-34 -66 -81.5 -130.5t-104.5 -123.5q35 -102 80 -157.5t100 -55.5q25 0 36.5 44.5t16.5 148.5q5 -4 13 -7.5t15 -5.5q-3 -59 -8 -99t-14.5 -64.5t-24 -35.5t-36.5 -11q-64 0 -114 58t-86 162q-54 -52 -114 -96.5t-125 -77.5l-11 11t-12 11q69 35 132 81.5
t119 103.5q-20 66 -35 145t-26 170h-267v-209l202 50l3 -27l-205 -53v-273q0 -25 -8.5 -35t-25.5 -15q-17 -4 -54.5 -5t-100.5 0q-2 6 -5.5 14.5t-6.5 15.5q54 -2 94.5 -1.5t53.5 1.5q14 1 19 5.5t5 18.5v268q-66 -17 -126 -32.5t-110 -27.5l-14 29q50 11 114 26.5t136 33.5
v216h-239v29h239v208q-53 -12 -106.5 -22.5t-104.5 -18.5q-2 5 -5 11.5t-6 12.5q52 9 108.5 20.5t109.5 24.5t99.5 26t79.5 27l25 -23q-35 -14 -78.5 -27t-92.5 -24v-215h264q-6 70 -10 144.5t-5 154.5h30q1 -81 4.5 -155.5t9.5 -143.5h317v-29h-313q9 -85 23 -158t32 -134
q51 55 93 114t74 119zM875 610q-13 18 -32.5 40.5t-43 46.5t-48 47.5t-48.5 43.5l25 16q23 -20 48 -43t48 -46t42.5 -45t33.5 -39z"     />

    
    <glyph glyph-name="uni6237" unicode="&#x6237;" d="M824 290h-29v78h-575q-3 -54 -12 -112t-26.5 -115.5t-45.5 -112.5t-70 -103q-4 5 -11.5 10.5t-12.5 7.5q51 58 81 124t45.5 134.5t20.5 135t5 125.5v209h630v-381zM795 397v245h-572v-180v-32t-1 -33h573zM523 672q-9 31 -26.5 74.5t-35.5 80.5l27 8q9 -18 18.5 -39
t18 -41t15.5 -39t12 -34z"     />

    
    <glyph glyph-name="cid19118" unicode="&#x6280;" d="M879 438q-33 -102 -89.5 -183t-128.5 -144q60 -55 131 -94.5t155 -62.5q-6 -5 -11.5 -12t-10.5 -14q-83 26 -154.5 67t-131.5 97q-72 -58 -150.5 -98.5t-158.5 -65.5q-3 7 -8 14.5t-9 12.5q78 22 156.5 61.5t148.5 96.5q-61 62 -107.5 138.5t-78.5 166.5h-39v29h234v182
h-257v29h257v172h29v-172h257v-29h-257v-182h198l7 2zM463 418q59 -169 178 -286q65 57 116 127.5t83 158.5h-377zM230 305v-327q0 -21 -7 -30.5t-21 -13.5q-14 -5 -42 -5.5t-79 0.5q-4 13 -12 28q42 -1 72.5 -0.5t39.5 0.5q11 1 15.5 5t4.5 15v319q-38 -13 -74 -24.5
t-68 -22.5l-13 31q32 8 71 20.5t84 26.5v260h-143v29h143v214h29v-214h124v-29h-124v-250l130 41l4 -28z"     />

    
    <glyph glyph-name="cid19171" unicode="&#x62A5;" d="M912 454q-24 -88 -67.5 -174t-103.5 -161q48 -53 100.5 -94t109.5 -67q-12 -11 -22 -25q-56 28 -107.5 69.5t-99.5 93.5q-45 -51 -95 -93t-108 -74q-4 5 -10 9.5t-11 9.5q59 32 110 75t95 95q-58 68 -104.5 148t-78.5 166h-54v-503h-29v868h436v-7q0 -3 -0.5 -6t-0.5 -5
q-3 -53 -6 -90t-6.5 -62t-9 -39.5t-12.5 -21.5q-10 -9 -21.5 -12.5t-34.5 -4.5q-22 -1 -68 0t-100 5q-1 7 -3.5 14.5t-7.5 14.5q28 -3 55.5 -4t50 -2t39.5 -1h24q17 0 27 1t16 6q5 5 9 17t7.5 34t6 54.5t5.5 79.5h-377v-307h420l7 2zM548 432q31 -79 75 -153.5t98 -137.5
q54 68 92.5 142.5t60.5 148.5h-326zM380 357q-34 -11 -68 -23t-68 -23v-330q0 -23 -8 -32.5t-24 -14.5q-17 -5 -49 -5.5t-92 -0.5q-2 6 -5 14t-8 15q50 -2 86 -1.5t47 1.5q13 1 18.5 5t5.5 18v321q-45 -14 -85.5 -27.5t-75.5 -24.5l-12 31q35 11 79 24t94 29v254h-159v29
h159v213h29v-213h130v-29h-130v-244q32 10 65.5 20.5t66.5 21.5z"     />

    
    <glyph glyph-name="cid68" unicode="&#x63;" d="M295 -13q-50 0 -93.5 18.5t-75 53.5t-49.5 86.5t-18 116.5q0 66 19 118t51.5 87.5t75.5 54t91 18.5q54 0 91 -20.5t63 -45.5l-23 -26q-26 25 -58 42t-73 17q-42 0 -78 -18t-63 -50t-42.5 -77.5t-15.5 -99.5t14 -98.5t40.5 -76.5t63 -49.5t81.5 -17.5q44 0 81 18.5
t65 44.5l21 -26q-33 -29 -75 -49.5t-93 -20.5z"  horiz-adv-x="492"   />

    
    </font>
</defs>
</svg>
